<svg width="38" height="38" viewBox="0 0 38 38" fill="none" xmlns="http://www.w3.org/2000/svg">
<path d="M15.0702 34.8335C14.2944 32.3037 13.1241 30.4177 11.5592 29.1755C9.21186 27.3124 5.48218 28.4703 4.10448 26.5486C2.72678 24.6267 5.06971 21.0925 5.89188 19.0072C6.71404 16.922 2.74061 16.1846 3.2045 15.5926C3.51377 15.198 5.52167 14.0591 9.22824 12.176C10.2814 6.16992 14.1715 3.16687 20.8986 3.16687C30.9891 3.16687 34.8334 11.7216 34.8334 17.1626C34.8334 22.6038 30.1784 28.4655 23.5474 29.7294C22.9545 30.5929 23.8097 32.2943 26.113 34.8335" stroke="#333333" stroke-width="2" stroke-linecap="round" stroke-linejoin="round"/>
<path fill-rule="evenodd" clip-rule="evenodd" d="M15.4372 11.4792C14.9201 13.4855 15.074 14.8943 15.8989 15.7055C16.7239 16.5168 18.13 17.0473 20.1172 17.2971C19.6663 19.8848 20.2161 21.0988 21.7662 20.9391C23.3165 20.7793 24.2479 20.1352 24.5606 19.0066C26.9833 19.6875 28.2964 19.1177 28.4997 17.2971C28.8049 14.5662 27.3323 12.3877 26.7286 12.3877C26.1247 12.3877 24.5606 12.3142 24.5606 11.4792C24.5606 10.6442 22.7334 10.1724 21.0844 10.1724C19.4353 10.1724 20.4278 9.06083 18.1634 9.50005C16.6537 9.79281 15.745 10.4525 15.4372 11.4792Z" stroke="#333333" stroke-width="2" stroke-linejoin="round"/>
<path d="M24.146 20.1877C23.3409 20.6873 22.2362 21.5179 21.771 22.1668C20.6081 23.7894 19.6648 24.7773 19.4584 25.8149" stroke="#333333" stroke-width="2" stroke-linecap="round"/>
</svg>
