<svg width="141" height="140" viewBox="0 0 141 140" fill="none" xmlns="http://www.w3.org/2000/svg">
<path d="M136.089 70C136.089 108.66 105.625 140 68.0447 140C30.4646 140 0 108.66 0 70C0 31.3401 30.4646 0 68.0447 0C105.625 0 136.089 31.3401 136.089 70Z" fill="url(#paint0_linear_134_320)"/>
<path d="M38.5547 64.8438C38.5547 65.5703 38.4609 66.2109 38.2734 66.7656C38.0938 67.3203 37.8359 67.8008 37.5 68.207C37.1719 68.6133 36.7812 68.9531 36.3281 69.2266C35.875 69.5 35.3789 69.7188 34.8398 69.8828C34.3086 70.0469 33.7422 70.1641 33.1406 70.2344C32.5469 70.3047 31.9414 70.3398 31.3242 70.3398C30.5117 70.3398 29.7617 70.2773 29.0742 70.1523C28.3867 70.0352 27.7383 69.8477 27.1289 69.5898C26.5273 69.3242 25.9453 68.9844 25.3828 68.5703C24.8281 68.1562 24.2734 67.6523 23.7188 67.0586L26.1094 64.6328C26.3281 65.1719 26.6289 65.6719 27.0117 66.1328C27.3945 66.5859 27.8125 66.9766 28.2656 67.3047C28.7266 67.6328 29.2031 67.8906 29.6953 68.0781C30.1875 68.2656 30.6523 68.3594 31.0898 68.3594C31.6055 68.3594 32.0898 68.3242 32.543 68.2539C32.9961 68.1758 33.3906 68.0508 33.7266 67.8789C34.0625 67.707 34.3242 67.4805 34.5117 67.1992C34.707 66.9102 34.8047 66.5508 34.8047 66.1211C34.8047 65.793 34.7305 65.5117 34.582 65.2773C34.4336 65.043 34.2383 64.8438 33.9961 64.6797C33.7617 64.5078 33.4922 64.3633 33.1875 64.2461C32.8828 64.1289 32.5703 64.0312 32.25 63.9531C31.9375 63.8672 31.6289 63.793 31.3242 63.7305C31.0195 63.6602 30.75 63.5898 30.5156 63.5195C30.0547 63.3867 29.5742 63.2461 29.0742 63.0977C28.5742 62.9414 28.082 62.7656 27.5977 62.5703C27.1133 62.375 26.6523 62.1523 26.2148 61.9023C25.7852 61.6445 25.4062 61.3438 25.0781 61C24.75 60.6484 24.4883 60.2461 24.293 59.793C24.0977 59.332 24 58.8047 24 58.2109C24 57.5 24.0859 56.8711 24.2578 56.3242C24.4375 55.7695 24.6875 55.2891 25.0078 54.8828C25.3281 54.4766 25.707 54.1367 26.1445 53.8633C26.582 53.582 27.0625 53.3594 27.5859 53.1953C28.1094 53.0234 28.6641 52.9023 29.25 52.832C29.8438 52.7539 30.4492 52.7148 31.0664 52.7148C31.9102 52.7148 32.6758 52.793 33.3633 52.9492C34.0586 53.1055 34.6992 53.3281 35.2852 53.6172C35.8711 53.9062 36.4062 54.2539 36.8906 54.6602C37.3828 55.0586 37.8438 55.5039 38.2734 55.9961L35.8828 58.4219C35.6953 57.8594 35.4336 57.3516 35.0977 56.8984C34.7695 56.4453 34.4023 56.0586 33.9961 55.7383C33.5898 55.4102 33.1641 55.1602 32.7188 54.9883C32.2734 54.8086 31.8438 54.7188 31.4297 54.7188C30.8906 54.7188 30.3945 54.7578 29.9414 54.8359C29.4883 54.9062 29.0977 55.0273 28.7695 55.1992C28.4492 55.3633 28.1992 55.5898 28.0195 55.8789C27.8398 56.1602 27.75 56.5117 27.75 56.9336C27.75 57.2695 27.8164 57.5547 27.9492 57.7891C28.082 58.0234 28.2578 58.2227 28.4766 58.3867C28.7031 58.5508 28.957 58.6875 29.2383 58.7969C29.5195 58.8984 29.8086 58.9883 30.1055 59.0664C30.4102 59.1445 30.707 59.2148 30.9961 59.2773C31.293 59.332 31.5625 59.3945 31.8047 59.4648C32.2734 59.5977 32.7656 59.7383 33.2812 59.8867C33.7969 60.0352 34.3047 60.2109 34.8047 60.4141C35.3047 60.6094 35.7812 60.8359 36.2344 61.0938C36.6875 61.3516 37.0859 61.6602 37.4297 62.0195C37.7734 62.3711 38.0469 62.7812 38.25 63.25C38.4531 63.7109 38.5547 64.2422 38.5547 64.8438ZM55.4062 63.2031C55.4062 64.1875 55.2578 65.1094 54.9609 65.9688C54.6641 66.8281 54.2344 67.5781 53.6719 68.2188C53.1094 68.8516 52.4219 69.3516 51.6094 69.7188C50.7969 70.0859 49.875 70.2695 48.8438 70.2695C48.0547 70.2695 47.3281 70.1172 46.6641 69.8125C46.0078 69.5 45.4453 69.0234 44.9766 68.3828V76.2461H41.0156V56.4648H42.5391L44.2969 59.4062C44.4688 58.9141 44.7031 58.4688 45 58.0703C45.3047 57.6641 45.6523 57.3203 46.043 57.0391C46.4414 56.75 46.875 56.5273 47.3438 56.3711C47.8203 56.2148 48.3203 56.1367 48.8438 56.1367C49.875 56.1367 50.7969 56.3203 51.6094 56.6875C52.4219 57.0547 53.1094 57.5586 53.6719 58.1992C54.2344 58.832 54.6641 59.5781 54.9609 60.4375C55.2578 61.2969 55.4062 62.2188 55.4062 63.2031ZM51.3867 63.2031C51.3867 62.8594 51.3672 62.4961 51.3281 62.1133C51.2969 61.7227 51.2383 61.3359 51.1523 60.9531C51.0664 60.5703 50.9453 60.2031 50.7891 59.8516C50.6406 59.5 50.4492 59.1914 50.2148 58.9258C49.9805 58.6523 49.6953 58.4375 49.3594 58.2812C49.0312 58.1172 48.6484 58.0352 48.2109 58.0352C47.7578 58.0352 47.3633 58.1133 47.0273 58.2695C46.6992 58.4258 46.4141 58.6406 46.1719 58.9141C45.9375 59.1797 45.7422 59.4883 45.5859 59.8398C45.4375 60.1836 45.3203 60.5469 45.2344 60.9297C45.1484 61.3125 45.0859 61.6992 45.0469 62.0898C45.0156 62.4805 45 62.8516 45 63.2031C45 63.5156 45.0234 63.8633 45.0703 64.2461C45.1172 64.6211 45.1914 65 45.293 65.3828C45.3945 65.7656 45.5273 66.1367 45.6914 66.4961C45.8555 66.8555 46.0547 67.1758 46.2891 67.457C46.5312 67.7383 46.8086 67.9648 47.1211 68.1367C47.4414 68.3008 47.8047 68.3828 48.2109 68.3828C48.6562 68.3828 49.043 68.3047 49.3711 68.1484C49.6992 67.9844 49.9805 67.7695 50.2148 67.5039C50.4492 67.2305 50.6406 66.918 50.7891 66.5664C50.9453 66.2148 51.0664 65.8477 51.1523 65.4648C51.2383 65.082 51.2969 64.6953 51.3281 64.3047C51.3672 63.9141 51.3867 63.5469 51.3867 63.2031ZM72.2578 63.2031C72.2578 63.9062 72.1641 64.5664 71.9766 65.1836C71.7891 65.8008 71.5273 66.3711 71.1914 66.8945C70.8633 67.418 70.4648 67.8906 69.9961 68.3125C69.5273 68.7266 69.0117 69.0781 68.4492 69.3672C67.8945 69.6562 67.2969 69.8789 66.6562 70.0352C66.0234 70.1914 65.3711 70.2695 64.6992 70.2695C64.0273 70.2695 63.375 70.1914 62.7422 70.0352C62.1094 69.8789 61.5117 69.6562 60.9492 69.3672C60.3945 69.0781 59.8828 68.7266 59.4141 68.3125C58.9453 67.8906 58.543 67.418 58.207 66.8945C57.8789 66.3711 57.6211 65.8008 57.4336 65.1836C57.2461 64.5586 57.1523 63.8984 57.1523 63.2031C57.1523 62.5078 57.2461 61.8516 57.4336 61.2344C57.6211 60.6094 57.8789 60.0352 58.207 59.5117C58.543 58.9883 58.9453 58.5195 59.4141 58.1055C59.8828 57.6836 60.3945 57.3281 60.9492 57.0391C61.5117 56.75 62.1094 56.5273 62.7422 56.3711C63.375 56.2148 64.0273 56.1367 64.6992 56.1367C65.3711 56.1367 66.0234 56.2148 66.6562 56.3711C67.2969 56.5273 67.8945 56.75 68.4492 57.0391C69.0117 57.3281 69.5273 57.6836 69.9961 58.1055C70.4648 58.5195 70.8633 58.9883 71.1914 59.5117C71.5273 60.0352 71.7891 60.6094 71.9766 61.2344C72.1641 61.8516 72.2578 62.5078 72.2578 63.2031ZM68.2266 63.2031C68.2266 62.8281 68.2031 62.4336 68.1562 62.0195C68.1172 61.5977 68.0469 61.1875 67.9453 60.7891C67.8438 60.3828 67.7031 59.9961 67.5234 59.6289C67.3516 59.2539 67.1367 58.9297 66.8789 58.6562C66.6211 58.375 66.3125 58.1523 65.9531 57.9883C65.5938 57.8164 65.1758 57.7305 64.6992 57.7305C64.2461 57.7305 63.8438 57.8164 63.4922 57.9883C63.1406 58.1602 62.832 58.3906 62.5664 58.6797C62.3086 58.9609 62.0898 59.2891 61.9102 59.6641C61.7383 60.0391 61.5977 60.4297 61.4883 60.8359C61.3789 61.2344 61.3008 61.6406 61.2539 62.0547C61.207 62.4609 61.1836 62.8438 61.1836 63.2031C61.1836 63.5625 61.207 63.9492 61.2539 64.3633C61.3008 64.7695 61.3789 65.1758 61.4883 65.582C61.5977 65.9883 61.7383 66.3789 61.9102 66.7539C62.0898 67.1211 62.3086 67.4492 62.5664 67.7383C62.832 68.0195 63.1406 68.2461 63.4922 68.418C63.8438 68.5898 64.2461 68.6758 64.6992 68.6758C65.168 68.6758 65.582 68.5938 65.9414 68.4297C66.3008 68.2578 66.6094 68.0312 66.8672 67.75C67.1328 67.4688 67.3516 67.1445 67.5234 66.7773C67.6953 66.4102 67.832 66.0234 67.9336 65.6172C68.043 65.2109 68.1172 64.8008 68.1562 64.3867C68.2031 63.9727 68.2266 63.5781 68.2266 63.2031ZM86.2734 57.6602L84.0469 61.3516C83.9531 61.0391 83.832 60.6875 83.6836 60.2969C83.5352 59.9062 83.3516 59.543 83.1328 59.207C82.9141 58.8633 82.6523 58.5781 82.3477 58.3516C82.043 58.1172 81.6914 58 81.293 58C80.9258 58 80.6055 58.0938 80.332 58.2812C80.0664 58.4688 79.8398 58.7148 79.6523 59.0195C79.4648 59.3164 79.3086 59.6562 79.1836 60.0391C79.0664 60.4141 78.9727 60.7969 78.9023 61.1875C78.8398 61.5703 78.7969 61.9414 78.7734 62.3008C78.75 62.6523 78.7383 62.957 78.7383 63.2148V70H74.7656V56.4648H76.2891L77.8945 59.6172C78.1133 59.1094 78.3633 58.6445 78.6445 58.2227C78.9258 57.793 79.25 57.4258 79.6172 57.1211C79.9844 56.8086 80.3984 56.5664 80.8594 56.3945C81.3281 56.2227 81.8555 56.1367 82.4414 56.1367C82.7461 56.1367 83.0859 56.1641 83.4609 56.2188C83.8359 56.2656 84.2031 56.3516 84.5625 56.4766C84.9219 56.5938 85.2539 56.75 85.5586 56.9453C85.8633 57.1406 86.1016 57.3789 86.2734 57.6602ZM93.0352 70H89.0625V58.0352H86.6016V56.4648H89.0625V51.4844H93.0352V56.4648H97.1367V58.0352H93.0352V70ZM110.531 65.6758C110.531 66.2695 110.445 66.7969 110.273 67.2578C110.102 67.7188 109.867 68.1211 109.57 68.4648C109.273 68.8008 108.922 69.0859 108.516 69.3203C108.109 69.5469 107.672 69.7305 107.203 69.8711C106.742 70.0117 106.258 70.1133 105.75 70.1758C105.242 70.2383 104.738 70.2695 104.238 70.2695C103.566 70.2695 102.973 70.2266 102.457 70.1406C101.941 70.0547 101.449 69.918 100.98 69.7305C100.512 69.5352 100.043 69.2852 99.5742 68.9805C99.1133 68.6758 98.5977 68.3047 98.0273 67.8672L100.336 65.9805C100.547 66.3789 100.824 66.7422 101.168 67.0703C101.52 67.3906 101.883 67.668 102.258 67.9023C102.633 68.1367 102.996 68.3164 103.348 68.4414C103.699 68.5664 103.984 68.6289 104.203 68.6289C104.383 68.6289 104.586 68.625 104.812 68.6172C105.039 68.6016 105.27 68.5781 105.504 68.5469C105.738 68.5078 105.969 68.4531 106.195 68.3828C106.422 68.3125 106.621 68.2188 106.793 68.1016C106.973 67.9766 107.113 67.8242 107.215 67.6445C107.324 67.457 107.379 67.2344 107.379 66.9766C107.379 66.7109 107.309 66.4805 107.168 66.2852C107.035 66.082 106.859 65.9062 106.641 65.7578C106.422 65.6094 106.172 65.4844 105.891 65.3828C105.609 65.2812 105.324 65.1914 105.035 65.1133C104.754 65.0352 104.48 64.9688 104.215 64.9141C103.949 64.8516 103.719 64.793 103.523 64.7383C103.164 64.6367 102.785 64.5352 102.387 64.4336C101.988 64.3242 101.594 64.2031 101.203 64.0703C100.812 63.9297 100.438 63.7656 100.078 63.5781C99.7266 63.3906 99.4141 63.168 99.1406 62.9102C98.875 62.6445 98.6602 62.3359 98.4961 61.9844C98.3398 61.625 98.2617 61.207 98.2617 60.7305C98.2617 59.8555 98.4336 59.125 98.7773 58.5391C99.1289 57.9453 99.5898 57.4727 100.16 57.1211C100.73 56.7617 101.379 56.5078 102.105 56.3594C102.832 56.2109 103.57 56.1367 104.32 56.1367C104.836 56.1367 105.379 56.1914 105.949 56.3008C106.52 56.4023 107.074 56.5586 107.613 56.7695C108.152 56.9727 108.656 57.2227 109.125 57.5195C109.594 57.8164 109.984 58.1562 110.297 58.5391L107.988 60.4375C107.816 59.9688 107.59 59.5664 107.309 59.2305C107.035 58.8945 106.734 58.6211 106.406 58.4102C106.086 58.1914 105.754 58.0312 105.41 57.9297C105.074 57.8281 104.762 57.7773 104.473 57.7773C104.191 57.7773 103.875 57.7891 103.523 57.8125C103.172 57.8359 102.84 57.9023 102.527 58.0117C102.223 58.1211 101.961 58.2891 101.742 58.5156C101.531 58.7344 101.426 59.0391 101.426 59.4297C101.426 59.7109 101.488 59.9531 101.613 60.1562C101.746 60.3516 101.918 60.5234 102.129 60.6719C102.34 60.8125 102.578 60.9336 102.844 61.0352C103.117 61.1289 103.395 61.2148 103.676 61.293C103.957 61.3633 104.23 61.4258 104.496 61.4805C104.762 61.5352 105 61.5938 105.211 61.6562C105.57 61.7578 105.949 61.8633 106.348 61.9727C106.754 62.0742 107.152 62.1953 107.543 62.3359C107.934 62.4688 108.309 62.6289 108.668 62.8164C109.035 62.9961 109.355 63.2188 109.629 63.4844C109.902 63.75 110.121 64.0625 110.285 64.4219C110.449 64.7734 110.531 65.1914 110.531 65.6758Z" fill="white"/>
<path d="M40.5 84.9258V85.1484C40.4844 85.8047 40.4141 86.4844 40.2891 87.1875C40.1719 87.8906 40.0039 88.5938 39.7852 89.2969C39.5664 90 39.3047 90.6953 39 91.3828C38.6953 92.0703 38.3516 92.7266 37.9688 93.3516C37.5938 93.9844 37.1875 94.5742 36.75 95.1211C36.3125 95.6758 35.8516 96.1641 35.3672 96.5859L33.6211 95.5781C33.8945 95.1172 34.1406 94.6133 34.3594 94.0664C34.5859 93.5273 34.7891 92.9609 34.9688 92.3672C35.1484 91.7734 35.3008 91.1641 35.4258 90.5391C35.5586 89.9141 35.668 89.293 35.7539 88.6758C35.8398 88.0586 35.9023 87.4531 35.9414 86.8594C35.9883 86.2578 36.0117 85.6875 36.0117 85.1484C36.0117 84.7266 36.0078 84.25 36 83.7188C36 83.1797 35.9688 82.6328 35.9062 82.0781C35.8516 81.5234 35.7578 80.9844 35.625 80.4609C35.4922 79.9297 35.293 79.457 35.0273 79.043C34.7695 78.6289 34.4336 78.2969 34.0195 78.0469C33.6133 77.7969 33.1055 77.6719 32.4961 77.6719C31.957 77.6719 31.4922 77.7656 31.1016 77.9531C30.7188 78.1328 30.3906 78.3789 30.1172 78.6914C29.8516 78.9961 29.6367 79.3516 29.4727 79.7578C29.3164 80.1641 29.1914 80.5938 29.0977 81.0469C29.0117 81.4922 28.9531 81.9453 28.9219 82.4062C28.8984 82.8594 28.8867 83.2891 28.8867 83.6953V86.9648H33.9375V88.8984H28.8867V93H24.2344V84.4219C24.2344 83.1953 24.4297 82.0547 24.8203 81C25.2109 79.9453 25.7617 79.0312 26.4727 78.2578C27.1914 77.4766 28.0508 76.8672 29.0508 76.4297C30.0586 75.9844 31.1797 75.7617 32.4141 75.7617C33.25 75.7617 34.0312 75.8828 34.7578 76.125C35.4922 76.3594 36.1602 76.6875 36.7617 77.1094C37.3633 77.5234 37.8984 78.0195 38.3672 78.5977C38.8438 79.168 39.2383 79.793 39.5508 80.4727C39.8711 81.1523 40.1133 81.8711 40.2773 82.6289C40.4414 83.3867 40.5156 84.1523 40.5 84.9258ZM54.5977 80.6602L52.3711 84.3516C52.2773 84.0391 52.1562 83.6875 52.0078 83.2969C51.8594 82.9062 51.6758 82.543 51.457 82.207C51.2383 81.8633 50.9766 81.5781 50.6719 81.3516C50.3672 81.1172 50.0156 81 49.6172 81C49.25 81 48.9297 81.0938 48.6562 81.2812C48.3906 81.4688 48.1641 81.7148 47.9766 82.0195C47.7891 82.3164 47.6328 82.6562 47.5078 83.0391C47.3906 83.4141 47.2969 83.7969 47.2266 84.1875C47.1641 84.5703 47.1211 84.9414 47.0977 85.3008C47.0742 85.6523 47.0625 85.957 47.0625 86.2148V93H43.0898V79.4648H44.6133L46.2188 82.6172C46.4375 82.1094 46.6875 81.6445 46.9688 81.2227C47.25 80.793 47.5742 80.4258 47.9414 80.1211C48.3086 79.8086 48.7227 79.5664 49.1836 79.3945C49.6523 79.2227 50.1797 79.1367 50.7656 79.1367C51.0703 79.1367 51.4102 79.1641 51.7852 79.2188C52.1602 79.2656 52.5273 79.3516 52.8867 79.4766C53.2461 79.5938 53.5781 79.75 53.8828 79.9453C54.1875 80.1406 54.4258 80.3789 54.5977 80.6602ZM68.4023 82.8164L66.6914 83.4961C66.418 82.6367 65.9609 81.9766 65.3203 81.5156C64.6797 81.0547 63.9102 80.8242 63.0117 80.8242C62.5273 80.8242 62.0938 80.9023 61.7109 81.0586C61.3359 81.207 61.0039 81.4141 60.7148 81.6797C60.4336 81.9453 60.1914 82.2539 59.9883 82.6055C59.793 82.957 59.6328 83.332 59.5078 83.7305C59.3828 84.1289 59.293 84.543 59.2383 84.9727C59.1836 85.3945 59.1562 85.8047 59.1562 86.2031C59.1562 86.6328 59.1797 87.0664 59.2266 87.5039C59.2734 87.9414 59.3516 88.3633 59.4609 88.7695C59.5781 89.168 59.7305 89.543 59.918 89.8945C60.1055 90.2383 60.3398 90.5391 60.6211 90.7969C60.9102 91.0547 61.25 91.2578 61.6406 91.4062C62.0391 91.5547 62.4961 91.6289 63.0117 91.6289C63.4258 91.6289 63.8203 91.5664 64.1953 91.4414C64.5703 91.3164 64.9141 91.1406 65.2266 90.9141C65.5391 90.6875 65.8164 90.418 66.0586 90.1055C66.3008 89.793 66.4922 89.4453 66.6328 89.0625L68.3555 89.6953C68.0977 90.3125 67.7539 90.8477 67.3242 91.3008C66.9023 91.7461 66.4219 92.1172 65.8828 92.4141C65.3438 92.7031 64.7656 92.918 64.1484 93.0586C63.5312 93.1992 62.9062 93.2695 62.2734 93.2695C61.25 93.2695 60.3008 93.0977 59.4258 92.7539C58.5508 92.4023 57.793 91.9141 57.1523 91.2891C56.5195 90.6562 56.0234 89.9102 55.6641 89.0508C55.3047 88.1836 55.125 87.2344 55.125 86.2031C55.125 85.1641 55.3008 84.2109 55.6523 83.3438C56.0117 82.4766 56.5078 81.7305 57.1406 81.1055C57.7734 80.4805 58.5273 79.9961 59.4023 79.6523C60.2773 79.3086 61.2344 79.1367 62.2734 79.1367C62.9297 79.1367 63.5703 79.2109 64.1953 79.3594C64.8203 79.5 65.3984 79.7227 65.9297 80.0273C66.4688 80.3242 66.9492 80.7031 67.3711 81.1641C67.8008 81.625 68.1445 82.1758 68.4023 82.8164ZM84.375 93H80.4141V91.3828C79.9453 92.0234 79.3789 92.5 78.7148 92.8125C78.0586 93.1172 77.3359 93.2695 76.5469 93.2695C75.5156 93.2695 74.5938 93.0859 73.7812 92.7188C72.9688 92.3516 72.2812 91.8516 71.7188 91.2188C71.1562 90.5781 70.7266 89.8281 70.4297 88.9688C70.1328 88.1094 69.9844 87.1875 69.9844 86.2031C69.9844 85.2188 70.1328 84.2969 70.4297 83.4375C70.7266 82.5781 71.1562 81.832 71.7188 81.1992C72.2812 80.5586 72.9688 80.0547 73.7812 79.6875C74.5938 79.3203 75.5156 79.1367 76.5469 79.1367C77.0703 79.1367 77.5664 79.2148 78.0352 79.3711C78.5117 79.5273 78.9453 79.75 79.3359 80.0391C79.7344 80.3203 80.082 80.6641 80.3789 81.0703C80.6836 81.4688 80.9219 81.9141 81.0938 82.4062L82.8516 79.4648H84.375V93ZM80.3906 86.2031C80.3906 85.8516 80.3711 85.4805 80.332 85.0898C80.3008 84.6992 80.2422 84.3125 80.1562 83.9297C80.0703 83.5469 79.9492 83.1836 79.793 82.8398C79.6445 82.4883 79.4492 82.1797 79.207 81.9141C78.9727 81.6406 78.6875 81.4258 78.3516 81.2695C78.0156 81.1133 77.625 81.0352 77.1797 81.0352C76.7344 81.0352 76.3477 81.1172 76.0195 81.2812C75.6914 81.4375 75.4102 81.6523 75.1758 81.9258C74.9414 82.1914 74.7461 82.5 74.5898 82.8516C74.4414 83.2031 74.3242 83.5703 74.2383 83.9531C74.1523 84.3359 74.0898 84.7227 74.0508 85.1133C74.0195 85.4961 74.0039 85.8594 74.0039 86.2031C74.0039 86.5469 74.0195 86.9141 74.0508 87.3047C74.0898 87.6953 74.1523 88.082 74.2383 88.4648C74.3242 88.8477 74.4414 89.2148 74.5898 89.5664C74.7461 89.918 74.9414 90.2305 75.1758 90.5039C75.4102 90.7695 75.6914 90.9844 76.0195 91.1484C76.3477 91.3047 76.7344 91.3828 77.1797 91.3828C77.5859 91.3828 77.9453 91.3008 78.2578 91.1367C78.5781 90.9648 78.8555 90.7383 79.0898 90.457C79.332 90.1758 79.5352 89.8555 79.6992 89.4961C79.8633 89.1367 79.9961 88.7656 80.0977 88.3828C80.1992 88 80.2734 87.6211 80.3203 87.2461C80.3672 86.8633 80.3906 86.5156 80.3906 86.2031ZM101.332 93H99.8086L98.0508 90.0586C97.8789 90.5508 97.6406 90.9961 97.3359 91.3945C97.0391 91.793 96.6914 92.1367 96.293 92.4258C95.9023 92.707 95.4688 92.9258 94.9922 93.082C94.5234 93.2383 94.0273 93.3164 93.5039 93.3164C92.4727 93.3164 91.5508 93.1328 90.7383 92.7656C89.9258 92.3984 89.2383 91.8984 88.6758 91.2656C88.1133 90.625 87.6836 89.875 87.3867 89.0156C87.0898 88.1562 86.9414 87.2344 86.9414 86.25C86.9414 85.2656 87.0898 84.3438 87.3867 83.4844C87.6836 82.625 88.1133 81.8789 88.6758 81.2461C89.2383 80.6133 89.9258 80.1133 90.7383 79.7461C91.5508 79.3789 92.4727 79.1953 93.5039 79.1953C94.293 79.1953 95.0156 79.3477 95.6719 79.6523C96.3359 79.957 96.9023 80.4336 97.3711 81.082V74.4844H101.332V93ZM97.3477 86.25C97.3477 85.9375 97.3242 85.5938 97.2773 85.2188C97.2305 84.8438 97.1562 84.4648 97.0547 84.082C96.9531 83.6992 96.8203 83.3281 96.6562 82.9688C96.4922 82.6094 96.2891 82.2891 96.0469 82.0078C95.8125 81.7266 95.5352 81.5039 95.2148 81.3398C94.9023 81.168 94.543 81.082 94.1367 81.082C93.6914 81.082 93.3047 81.1641 92.9766 81.3281C92.6484 81.4844 92.3672 81.6992 92.1328 81.9727C91.8984 82.2383 91.7031 82.5469 91.5469 82.8984C91.3984 83.25 91.2812 83.6172 91.1953 84C91.1094 84.3828 91.0469 84.7695 91.0078 85.1602C90.9766 85.543 90.9609 85.9062 90.9609 86.25C90.9609 86.5938 90.9766 86.9609 91.0078 87.3516C91.0469 87.7344 91.1094 88.1172 91.1953 88.5C91.2812 88.8828 91.3984 89.2539 91.5469 89.6133C91.7031 89.9648 91.8984 90.2773 92.1328 90.5508C92.3672 90.8164 92.6484 91.0312 92.9766 91.1953C93.3047 91.3516 93.6914 91.4297 94.1367 91.4297C94.582 91.4297 94.9727 91.3516 95.3086 91.1953C95.6445 91.0391 95.9297 90.8281 96.1641 90.5625C96.4062 90.2891 96.6016 89.9805 96.75 89.6367C96.9062 89.2852 97.0273 88.918 97.1133 88.5352C97.1992 88.1445 97.2578 87.7539 97.2891 87.3633C97.3281 86.9727 97.3477 86.6016 97.3477 86.25ZM107.895 86.5781C108.379 86.6875 108.863 86.7734 109.348 86.8359C109.832 86.8984 110.32 86.9297 110.812 86.9297C111.328 86.9297 111.805 86.8828 112.242 86.7891C112.688 86.6875 113.07 86.5234 113.391 86.2969C113.719 86.0625 113.977 85.7539 114.164 85.3711C114.352 84.9883 114.445 84.5117 114.445 83.9414C114.445 83.4805 114.383 83.0586 114.258 82.6758C114.133 82.293 113.945 81.9648 113.695 81.6914C113.453 81.418 113.152 81.207 112.793 81.0586C112.434 80.9023 112.016 80.8242 111.539 80.8242C111.094 80.8242 110.691 80.9062 110.332 81.0703C109.98 81.2344 109.668 81.457 109.395 81.7383C109.129 82.0117 108.898 82.332 108.703 82.6992C108.516 83.0664 108.359 83.4492 108.234 83.8477C108.109 84.2461 108.02 84.6484 107.965 85.0547C107.91 85.4609 107.883 85.8438 107.883 86.2031C107.883 86.2656 107.883 86.3281 107.883 86.3906C107.883 86.4531 107.887 86.5156 107.895 86.5781ZM117.656 83.9062C117.656 84.4609 117.566 84.957 117.387 85.3945C117.207 85.8242 116.961 86.2031 116.648 86.5312C116.344 86.8594 115.988 87.1367 115.582 87.3633C115.176 87.5898 114.742 87.7773 114.281 87.9258C113.82 88.0664 113.344 88.168 112.852 88.2305C112.367 88.293 111.895 88.3242 111.434 88.3242C110.848 88.3242 110.27 88.2852 109.699 88.207C109.129 88.1211 108.566 87.9883 108.012 87.8086C108.098 88.3242 108.234 88.8164 108.422 89.2852C108.609 89.7461 108.859 90.1523 109.172 90.5039C109.484 90.8477 109.867 91.1211 110.32 91.3242C110.781 91.5273 111.324 91.6289 111.949 91.6289C112.363 91.6289 112.758 91.5664 113.133 91.4414C113.508 91.3164 113.852 91.1406 114.164 90.9141C114.477 90.6875 114.75 90.418 114.984 90.1055C115.227 89.793 115.422 89.4453 115.57 89.0625L117.281 89.6953C117.023 90.3125 116.668 90.8477 116.215 91.3008C115.77 91.7461 115.262 92.1172 114.691 92.4141C114.129 92.7031 113.527 92.918 112.887 93.0586C112.254 93.1992 111.625 93.2695 111 93.2695C109.969 93.2695 109.016 93.0977 108.141 92.7539C107.266 92.4023 106.512 91.9141 105.879 91.2891C105.246 90.6641 104.75 89.918 104.391 89.0508C104.031 88.1836 103.852 87.2344 103.852 86.2031C103.852 85.1719 104.031 84.2227 104.391 83.3555C104.75 82.4883 105.246 81.7422 105.879 81.1172C106.512 80.4922 107.266 80.0078 108.141 79.6641C109.016 79.3125 109.969 79.1367 111 79.1367C111.5 79.1367 112.012 79.1719 112.535 79.2422C113.059 79.3125 113.566 79.4258 114.059 79.582C114.551 79.7305 115.016 79.9258 115.453 80.168C115.891 80.4102 116.27 80.7109 116.59 81.0703C116.918 81.4219 117.176 81.832 117.363 82.3008C117.559 82.7695 117.656 83.3047 117.656 83.9062Z" fill="#FFFBFB"/>
<defs>
<linearGradient id="paint0_linear_134_320" x1="68.0447" y1="0" x2="68.0447" y2="140" gradientUnits="userSpaceOnUse">
<stop stop-color="#8A8EF1"/>
<stop offset="1"/>
</linearGradient>
</defs>
</svg>
