<svg width="141" height="140" viewBox="0 0 141 140" fill="none" xmlns="http://www.w3.org/2000/svg">
<path d="M136.089 70C136.089 108.66 105.625 140 68.0447 140C30.4646 140 0 108.66 0 70C0 31.3401 30.4646 0 68.0447 0C105.625 0 136.089 31.3401 136.089 70Z" fill="url(#paint0_linear_134_320)"/>
<path d="M17.2383 57.4141L15.9258 70H13.0547L15.9258 53.125H20.1797L24.1289 66.0039L28.125 53.125H32.3789L34.7695 70H30.0352L28.6406 57.7422L25.3477 70H21.0938L17.2383 57.4141ZM41.543 53.1953C41.543 53.4922 41.4844 53.7734 41.3672 54.0391C41.2578 54.3047 41.1055 54.5352 40.9102 54.7305C40.7148 54.9258 40.4844 55.082 40.2188 55.1992C39.9531 55.3086 39.6719 55.3633 39.375 55.3633C39.0781 55.3633 38.7969 55.3086 38.5312 55.1992C38.2734 55.082 38.0469 54.9258 37.8516 54.7305C37.6562 54.5352 37.5 54.3047 37.3828 54.0391C37.2734 53.7734 37.2188 53.4922 37.2188 53.1953C37.2188 52.8984 37.2734 52.6211 37.3828 52.3633C37.5 52.0977 37.6562 51.8672 37.8516 51.6719C38.0469 51.4766 38.2734 51.3242 38.5312 51.2148C38.7969 51.0977 39.0781 51.0391 39.375 51.0391C39.6719 51.0391 39.9531 51.0977 40.2188 51.2148C40.4844 51.3242 40.7148 51.4766 40.9102 51.6719C41.1055 51.8672 41.2578 52.0977 41.3672 52.3633C41.4844 52.6211 41.543 52.8984 41.543 53.1953ZM41.3672 70H37.3945V56.4766H41.3672V70ZM58.5352 62.2422C58.5352 63.1562 58.4219 64.1094 58.1953 65.1016C57.9766 66.0938 57.668 67.0664 57.2695 68.0195C56.8711 68.9727 56.3945 69.8672 55.8398 70.7031C55.2852 71.5469 54.6758 72.2734 54.0117 72.8828L52.5234 72.0742C52.7344 71.6836 52.9336 71.2461 53.1211 70.7617C53.3086 70.2773 53.4766 69.7656 53.625 69.2266C53.7812 68.6797 53.918 68.1172 54.0352 67.5391C54.1602 66.9609 54.2617 66.3906 54.3398 65.8281C54.4258 65.2578 54.4883 64.707 54.5273 64.1758C54.5742 63.6367 54.5977 63.1367 54.5977 62.6758C54.5977 62.3711 54.5859 62.0469 54.5625 61.7031C54.5391 61.3516 54.4883 61.0039 54.4102 60.6602C54.3398 60.3086 54.2422 59.9727 54.1172 59.6523C53.9922 59.332 53.8242 59.0508 53.6133 58.8086C53.4102 58.5664 53.1602 58.3711 52.8633 58.2227C52.5742 58.0742 52.2305 58 51.832 58C51.4414 58 51.0938 58.0898 50.7891 58.2695C50.4844 58.4414 50.2148 58.6719 49.9805 58.9609C49.7461 59.2422 49.543 59.5664 49.3711 59.9336C49.207 60.3008 49.0703 60.6797 48.9609 61.0703C48.8594 61.4531 48.7852 61.832 48.7383 62.207C48.6914 62.582 48.668 62.918 48.668 63.2148V70H44.6953V56.4648H46.2188L48.0352 59.6172C48.2539 59.0938 48.5273 58.6172 48.8555 58.1875C49.1836 57.7578 49.5547 57.3906 49.9688 57.0859C50.3828 56.7812 50.8398 56.5469 51.3398 56.3828C51.8477 56.2188 52.3945 56.1367 52.9805 56.1367C53.918 56.1367 54.7344 56.2891 55.4297 56.5938C56.125 56.8984 56.7031 57.3242 57.1641 57.8711C57.625 58.4102 57.9688 59.0547 58.1953 59.8047C58.4219 60.5469 58.5352 61.3594 58.5352 62.2422ZM65.3086 53.1953C65.3086 53.4922 65.25 53.7734 65.1328 54.0391C65.0234 54.3047 64.8711 54.5352 64.6758 54.7305C64.4805 54.9258 64.25 55.082 63.9844 55.1992C63.7188 55.3086 63.4375 55.3633 63.1406 55.3633C62.8438 55.3633 62.5625 55.3086 62.2969 55.1992C62.0391 55.082 61.8125 54.9258 61.6172 54.7305C61.4219 54.5352 61.2656 54.3047 61.1484 54.0391C61.0391 53.7734 60.9844 53.4922 60.9844 53.1953C60.9844 52.8984 61.0391 52.6211 61.1484 52.3633C61.2656 52.0977 61.4219 51.8672 61.6172 51.6719C61.8125 51.4766 62.0391 51.3242 62.2969 51.2148C62.5625 51.0977 62.8438 51.0391 63.1406 51.0391C63.4375 51.0391 63.7188 51.0977 63.9844 51.2148C64.25 51.3242 64.4805 51.4766 64.6758 51.6719C64.8711 51.8672 65.0234 52.0977 65.1328 52.3633C65.25 52.6211 65.3086 52.8984 65.3086 53.1953ZM65.1328 70H61.1602V56.4766H65.1328V70ZM73.3711 70H68.7188V53.125H77.8359C78.625 53.125 79.3789 53.2305 80.0977 53.4414C80.8242 53.6523 81.4648 53.9727 82.0195 54.4023C82.5742 54.8242 83.0156 55.3594 83.3438 56.0078C83.6797 56.6484 83.8477 57.4023 83.8477 58.2695C83.8477 58.8164 83.7695 59.332 83.6133 59.8164C83.457 60.293 83.2383 60.7305 82.957 61.1289C82.6836 61.5273 82.3594 61.8867 81.9844 62.207C81.6094 62.5273 81.1992 62.7969 80.7539 63.0156C80.3086 63.2344 79.8359 63.4023 79.3359 63.5195C78.8438 63.6367 78.3438 63.6953 77.8359 63.6953H73.3711V70ZM79.1367 58.2695C79.1367 57.1836 78.8594 56.332 78.3047 55.7148C77.7578 55.0898 76.9297 54.7773 75.8203 54.7773H73.3711V62.1016H75.8203C76.4141 62.1016 76.918 62.0078 77.332 61.8203C77.7539 61.625 78.0977 61.3555 78.3633 61.0117C78.6289 60.668 78.8242 60.2656 78.9492 59.8047C79.0742 59.3359 79.1367 58.8242 79.1367 58.2695ZM89.8594 70H85.8984V50.2305H87.4219L89.8594 54.3438V70ZM106.793 70H102.832V68.3828C102.363 69.0234 101.797 69.5 101.133 69.8125C100.477 70.1172 99.7539 70.2695 98.9648 70.2695C97.9336 70.2695 97.0117 70.0859 96.1992 69.7188C95.3867 69.3516 94.6992 68.8516 94.1367 68.2188C93.5742 67.5781 93.1445 66.8281 92.8477 65.9688C92.5508 65.1094 92.4023 64.1875 92.4023 63.2031C92.4023 62.2188 92.5508 61.2969 92.8477 60.4375C93.1445 59.5781 93.5742 58.832 94.1367 58.1992C94.6992 57.5586 95.3867 57.0547 96.1992 56.6875C97.0117 56.3203 97.9336 56.1367 98.9648 56.1367C99.4883 56.1367 99.9844 56.2148 100.453 56.3711C100.93 56.5273 101.363 56.75 101.754 57.0391C102.152 57.3203 102.5 57.6641 102.797 58.0703C103.102 58.4688 103.34 58.9141 103.512 59.4062L105.27 56.4648H106.793V70ZM102.809 63.2031C102.809 62.8516 102.789 62.4805 102.75 62.0898C102.719 61.6992 102.66 61.3125 102.574 60.9297C102.488 60.5469 102.367 60.1836 102.211 59.8398C102.062 59.4883 101.867 59.1797 101.625 58.9141C101.391 58.6406 101.105 58.4258 100.77 58.2695C100.434 58.1133 100.043 58.0352 99.5977 58.0352C99.1523 58.0352 98.7656 58.1172 98.4375 58.2812C98.1094 58.4375 97.8281 58.6523 97.5938 58.9258C97.3594 59.1914 97.1641 59.5 97.0078 59.8516C96.8594 60.2031 96.7422 60.5703 96.6562 60.9531C96.5703 61.3359 96.5078 61.7227 96.4688 62.1133C96.4375 62.4961 96.4219 62.8594 96.4219 63.2031C96.4219 63.5469 96.4375 63.9141 96.4688 64.3047C96.5078 64.6953 96.5703 65.082 96.6562 65.4648C96.7422 65.8477 96.8594 66.2148 97.0078 66.5664C97.1641 66.918 97.3594 67.2305 97.5938 67.5039C97.8281 67.7695 98.1094 67.9844 98.4375 68.1484C98.7656 68.3047 99.1523 68.3828 99.5977 68.3828C100.004 68.3828 100.363 68.3008 100.676 68.1367C100.996 67.9648 101.273 67.7383 101.508 67.457C101.75 67.1758 101.953 66.8555 102.117 66.4961C102.281 66.1367 102.414 65.7656 102.516 65.3828C102.617 65 102.691 64.6211 102.738 64.2461C102.785 63.8633 102.809 63.5156 102.809 63.2031ZM122.227 56.4648L117.305 68.3711C116.742 69.7305 116.113 71.0742 115.418 72.4023C114.73 73.7383 113.984 75.0195 113.18 76.2461L111.633 75.3086C111.828 74.957 112.059 74.5508 112.324 74.0898C112.59 73.6289 112.852 73.1523 113.109 72.6602C113.367 72.168 113.605 71.6797 113.824 71.1953C114.043 70.7188 114.211 70.2812 114.328 69.8828L108.41 56.4648H112.371L116.391 65.6172L119.484 56.4648H122.227Z" fill="white"/>
<path d="M36.7734 87.8438C36.7734 88.5703 36.6797 89.2109 36.4922 89.7656C36.3125 90.3203 36.0547 90.8008 35.7188 91.207C35.3906 91.6133 35 91.9531 34.5469 92.2266C34.0938 92.5 33.5977 92.7188 33.0586 92.8828C32.5273 93.0469 31.9609 93.1641 31.3594 93.2344C30.7656 93.3047 30.1602 93.3398 29.543 93.3398C28.7305 93.3398 27.9805 93.2773 27.293 93.1523C26.6055 93.0352 25.957 92.8477 25.3477 92.5898C24.7461 92.3242 24.1641 91.9844 23.6016 91.5703C23.0469 91.1562 22.4922 90.6523 21.9375 90.0586L24.3281 87.6328C24.5469 88.1719 24.8477 88.6719 25.2305 89.1328C25.6133 89.5859 26.0312 89.9766 26.4844 90.3047C26.9453 90.6328 27.4219 90.8906 27.9141 91.0781C28.4062 91.2656 28.8711 91.3594 29.3086 91.3594C29.8242 91.3594 30.3086 91.3242 30.7617 91.2539C31.2148 91.1758 31.6094 91.0508 31.9453 90.8789C32.2812 90.707 32.543 90.4805 32.7305 90.1992C32.9258 89.9102 33.0234 89.5508 33.0234 89.1211C33.0234 88.793 32.9492 88.5117 32.8008 88.2773C32.6523 88.043 32.457 87.8438 32.2148 87.6797C31.9805 87.5078 31.7109 87.3633 31.4062 87.2461C31.1016 87.1289 30.7891 87.0312 30.4688 86.9531C30.1562 86.8672 29.8477 86.793 29.543 86.7305C29.2383 86.6602 28.9688 86.5898 28.7344 86.5195C28.2734 86.3867 27.793 86.2461 27.293 86.0977C26.793 85.9414 26.3008 85.7656 25.8164 85.5703C25.332 85.375 24.8711 85.1523 24.4336 84.9023C24.0039 84.6445 23.625 84.3438 23.2969 84C22.9688 83.6484 22.707 83.2461 22.5117 82.793C22.3164 82.332 22.2188 81.8047 22.2188 81.2109C22.2188 80.5 22.3047 79.8711 22.4766 79.3242C22.6562 78.7695 22.9062 78.2891 23.2266 77.8828C23.5469 77.4766 23.9258 77.1367 24.3633 76.8633C24.8008 76.582 25.2812 76.3594 25.8047 76.1953C26.3281 76.0234 26.8828 75.9023 27.4688 75.832C28.0625 75.7539 28.668 75.7148 29.2852 75.7148C30.1289 75.7148 30.8945 75.793 31.582 75.9492C32.2773 76.1055 32.918 76.3281 33.5039 76.6172C34.0898 76.9062 34.625 77.2539 35.1094 77.6602C35.6016 78.0586 36.0625 78.5039 36.4922 78.9961L34.1016 81.4219C33.9141 80.8594 33.6523 80.3516 33.3164 79.8984C32.9883 79.4453 32.6211 79.0586 32.2148 78.7383C31.8086 78.4102 31.3828 78.1602 30.9375 77.9883C30.4922 77.8086 30.0625 77.7188 29.6484 77.7188C29.1094 77.7188 28.6133 77.7578 28.1602 77.8359C27.707 77.9062 27.3164 78.0273 26.9883 78.1992C26.668 78.3633 26.418 78.5898 26.2383 78.8789C26.0586 79.1602 25.9688 79.5117 25.9688 79.9336C25.9688 80.2695 26.0352 80.5547 26.168 80.7891C26.3008 81.0234 26.4766 81.2227 26.6953 81.3867C26.9219 81.5508 27.1758 81.6875 27.457 81.7969C27.7383 81.8984 28.0273 81.9883 28.3242 82.0664C28.6289 82.1445 28.9258 82.2148 29.2148 82.2773C29.5117 82.332 29.7812 82.3945 30.0234 82.4648C30.4922 82.5977 30.9844 82.7383 31.5 82.8867C32.0156 83.0352 32.5234 83.2109 33.0234 83.4141C33.5234 83.6094 34 83.8359 34.4531 84.0938C34.9062 84.3516 35.3047 84.6602 35.6484 85.0195C35.9922 85.3711 36.2656 85.7812 36.4688 86.25C36.6719 86.7109 36.7734 87.2422 36.7734 87.8438ZM44.332 93H40.3594V81.0352H37.8984V79.4648H40.3594V74.4844H44.332V79.4648H48.4336V81.0352H44.332V93ZM49.2539 87.2109C49.2539 86.5938 49.3047 85.9531 49.4062 85.2891C49.5156 84.625 49.668 83.9609 49.8633 83.2969C50.0664 82.6328 50.3086 81.9766 50.5898 81.3281C50.8711 80.6797 51.1875 80.0586 51.5391 79.4648H54.4336C54.2383 80.0508 54.0625 80.6641 53.9062 81.3047C53.7578 81.9375 53.6289 82.5742 53.5195 83.2148C53.418 83.8477 53.3359 84.4688 53.2734 85.0781C53.2188 85.6875 53.1914 86.2539 53.1914 86.7773C53.1914 87.082 53.2031 87.4102 53.2266 87.7617C53.2578 88.1055 53.3086 88.4531 53.3789 88.8047C53.4492 89.1484 53.5469 89.4805 53.6719 89.8008C53.8047 90.1211 53.9727 90.4062 54.1758 90.6562C54.3789 90.8984 54.625 91.0938 54.9141 91.2422C55.2109 91.3828 55.5586 91.4531 55.957 91.4531C56.3477 91.4531 56.6953 91.3672 57 91.1953C57.3125 91.0156 57.5859 90.7852 57.8203 90.5039C58.0547 90.2148 58.2539 89.8867 58.418 89.5195C58.582 89.1523 58.7148 88.7773 58.8164 88.3945C58.9258 88.0039 59.0039 87.625 59.0508 87.2578C59.1055 86.8828 59.1328 86.5469 59.1328 86.25V79.4648H63.0938V93H61.5703L59.7539 89.8477C59.5273 90.3711 59.25 90.8477 58.9219 91.2773C58.6016 91.6992 58.2344 92.0625 57.8203 92.3672C57.4062 92.6719 56.9453 92.9062 56.4375 93.0703C55.9375 93.2344 55.3945 93.3164 54.8086 93.3164C53.8711 93.3164 53.0547 93.1641 52.3594 92.8594C51.6641 92.5547 51.0859 92.1328 50.625 91.5938C50.1641 91.0547 49.8203 90.4141 49.5938 89.6719C49.3672 88.9219 49.2539 88.1016 49.2539 87.2109ZM80.0391 93H78.5156L76.7578 90.0586C76.5859 90.5508 76.3477 90.9961 76.043 91.3945C75.7461 91.793 75.3984 92.1367 75 92.4258C74.6094 92.707 74.1758 92.9258 73.6992 93.082C73.2305 93.2383 72.7344 93.3164 72.2109 93.3164C71.1797 93.3164 70.2578 93.1328 69.4453 92.7656C68.6328 92.3984 67.9453 91.8984 67.3828 91.2656C66.8203 90.625 66.3906 89.875 66.0938 89.0156C65.7969 88.1562 65.6484 87.2344 65.6484 86.25C65.6484 85.2656 65.7969 84.3438 66.0938 83.4844C66.3906 82.625 66.8203 81.8789 67.3828 81.2461C67.9453 80.6133 68.6328 80.1133 69.4453 79.7461C70.2578 79.3789 71.1797 79.1953 72.2109 79.1953C73 79.1953 73.7227 79.3477 74.3789 79.6523C75.043 79.957 75.6094 80.4336 76.0781 81.082V74.4844H80.0391V93ZM76.0547 86.25C76.0547 85.9375 76.0312 85.5938 75.9844 85.2188C75.9375 84.8438 75.8633 84.4648 75.7617 84.082C75.6602 83.6992 75.5273 83.3281 75.3633 82.9688C75.1992 82.6094 74.9961 82.2891 74.7539 82.0078C74.5195 81.7266 74.2422 81.5039 73.9219 81.3398C73.6094 81.168 73.25 81.082 72.8438 81.082C72.3984 81.082 72.0117 81.1641 71.6836 81.3281C71.3555 81.4844 71.0742 81.6992 70.8398 81.9727C70.6055 82.2383 70.4102 82.5469 70.2539 82.8984C70.1055 83.25 69.9883 83.6172 69.9023 84C69.8164 84.3828 69.7539 84.7695 69.7148 85.1602C69.6836 85.543 69.668 85.9062 69.668 86.25C69.668 86.5938 69.6836 86.9609 69.7148 87.3516C69.7539 87.7344 69.8164 88.1172 69.9023 88.5C69.9883 88.8828 70.1055 89.2539 70.2539 89.6133C70.4102 89.9648 70.6055 90.2773 70.8398 90.5508C71.0742 90.8164 71.3555 91.0312 71.6836 91.1953C72.0117 91.3516 72.3984 91.4297 72.8438 91.4297C73.2891 91.4297 73.6797 91.3516 74.0156 91.1953C74.3516 91.0391 74.6367 90.8281 74.8711 90.5625C75.1133 90.2891 75.3086 89.9805 75.457 89.6367C75.6133 89.2852 75.7344 88.918 75.8203 88.5352C75.9062 88.1445 75.9648 87.7539 75.9961 87.3633C76.0352 86.9727 76.0547 86.6016 76.0547 86.25ZM87.5039 76.1953C87.5039 76.4922 87.4453 76.7734 87.3281 77.0391C87.2188 77.3047 87.0664 77.5352 86.8711 77.7305C86.6758 77.9258 86.4453 78.082 86.1797 78.1992C85.9141 78.3086 85.6328 78.3633 85.3359 78.3633C85.0391 78.3633 84.7578 78.3086 84.4922 78.1992C84.2344 78.082 84.0078 77.9258 83.8125 77.7305C83.6172 77.5352 83.4609 77.3047 83.3438 77.0391C83.2344 76.7734 83.1797 76.4922 83.1797 76.1953C83.1797 75.8984 83.2344 75.6211 83.3438 75.3633C83.4609 75.0977 83.6172 74.8672 83.8125 74.6719C84.0078 74.4766 84.2344 74.3242 84.4922 74.2148C84.7578 74.0977 85.0391 74.0391 85.3359 74.0391C85.6328 74.0391 85.9141 74.0977 86.1797 74.2148C86.4453 74.3242 86.6758 74.4766 86.8711 74.6719C87.0664 74.8672 87.2188 75.0977 87.3281 75.3633C87.4453 75.6211 87.5039 75.8984 87.5039 76.1953ZM87.3281 93H83.3555V79.4766H87.3281V93ZM104.953 86.2031C104.953 86.9062 104.859 87.5664 104.672 88.1836C104.484 88.8008 104.223 89.3711 103.887 89.8945C103.559 90.418 103.16 90.8906 102.691 91.3125C102.223 91.7266 101.707 92.0781 101.145 92.3672C100.59 92.6562 99.9922 92.8789 99.3516 93.0352C98.7188 93.1914 98.0664 93.2695 97.3945 93.2695C96.7227 93.2695 96.0703 93.1914 95.4375 93.0352C94.8047 92.8789 94.207 92.6562 93.6445 92.3672C93.0898 92.0781 92.5781 91.7266 92.1094 91.3125C91.6406 90.8906 91.2383 90.418 90.9023 89.8945C90.5742 89.3711 90.3164 88.8008 90.1289 88.1836C89.9414 87.5586 89.8477 86.8984 89.8477 86.2031C89.8477 85.5078 89.9414 84.8516 90.1289 84.2344C90.3164 83.6094 90.5742 83.0352 90.9023 82.5117C91.2383 81.9883 91.6406 81.5195 92.1094 81.1055C92.5781 80.6836 93.0898 80.3281 93.6445 80.0391C94.207 79.75 94.8047 79.5273 95.4375 79.3711C96.0703 79.2148 96.7227 79.1367 97.3945 79.1367C98.0664 79.1367 98.7188 79.2148 99.3516 79.3711C99.9922 79.5273 100.59 79.75 101.145 80.0391C101.707 80.3281 102.223 80.6836 102.691 81.1055C103.16 81.5195 103.559 81.9883 103.887 82.5117C104.223 83.0352 104.484 83.6094 104.672 84.2344C104.859 84.8516 104.953 85.5078 104.953 86.2031ZM100.922 86.2031C100.922 85.8281 100.898 85.4336 100.852 85.0195C100.812 84.5977 100.742 84.1875 100.641 83.7891C100.539 83.3828 100.398 82.9961 100.219 82.6289C100.047 82.2539 99.832 81.9297 99.5742 81.6562C99.3164 81.375 99.0078 81.1523 98.6484 80.9883C98.2891 80.8164 97.8711 80.7305 97.3945 80.7305C96.9414 80.7305 96.5391 80.8164 96.1875 80.9883C95.8359 81.1602 95.5273 81.3906 95.2617 81.6797C95.0039 81.9609 94.7852 82.2891 94.6055 82.6641C94.4336 83.0391 94.293 83.4297 94.1836 83.8359C94.0742 84.2344 93.9961 84.6406 93.9492 85.0547C93.9023 85.4609 93.8789 85.8438 93.8789 86.2031C93.8789 86.5625 93.9023 86.9492 93.9492 87.3633C93.9961 87.7695 94.0742 88.1758 94.1836 88.582C94.293 88.9883 94.4336 89.3789 94.6055 89.7539C94.7852 90.1211 95.0039 90.4492 95.2617 90.7383C95.5273 91.0195 95.8359 91.2461 96.1875 91.418C96.5391 91.5898 96.9414 91.6758 97.3945 91.6758C97.8633 91.6758 98.2773 91.5938 98.6367 91.4297C98.9961 91.2578 99.3047 91.0312 99.5625 90.75C99.8281 90.4688 100.047 90.1445 100.219 89.7773C100.391 89.4102 100.527 89.0234 100.629 88.6172C100.738 88.2109 100.812 87.8008 100.852 87.3867C100.898 86.9727 100.922 86.5781 100.922 86.2031ZM119.109 88.6758C119.109 89.2695 119.023 89.7969 118.852 90.2578C118.68 90.7188 118.445 91.1211 118.148 91.4648C117.852 91.8008 117.5 92.0859 117.094 92.3203C116.688 92.5469 116.25 92.7305 115.781 92.8711C115.32 93.0117 114.836 93.1133 114.328 93.1758C113.82 93.2383 113.316 93.2695 112.816 93.2695C112.145 93.2695 111.551 93.2266 111.035 93.1406C110.52 93.0547 110.027 92.918 109.559 92.7305C109.09 92.5352 108.621 92.2852 108.152 91.9805C107.691 91.6758 107.176 91.3047 106.605 90.8672L108.914 88.9805C109.125 89.3789 109.402 89.7422 109.746 90.0703C110.098 90.3906 110.461 90.668 110.836 90.9023C111.211 91.1367 111.574 91.3164 111.926 91.4414C112.277 91.5664 112.562 91.6289 112.781 91.6289C112.961 91.6289 113.164 91.625 113.391 91.6172C113.617 91.6016 113.848 91.5781 114.082 91.5469C114.316 91.5078 114.547 91.4531 114.773 91.3828C115 91.3125 115.199 91.2188 115.371 91.1016C115.551 90.9766 115.691 90.8242 115.793 90.6445C115.902 90.457 115.957 90.2344 115.957 89.9766C115.957 89.7109 115.887 89.4805 115.746 89.2852C115.613 89.082 115.438 88.9062 115.219 88.7578C115 88.6094 114.75 88.4844 114.469 88.3828C114.188 88.2812 113.902 88.1914 113.613 88.1133C113.332 88.0352 113.059 87.9688 112.793 87.9141C112.527 87.8516 112.297 87.793 112.102 87.7383C111.742 87.6367 111.363 87.5352 110.965 87.4336C110.566 87.3242 110.172 87.2031 109.781 87.0703C109.391 86.9297 109.016 86.7656 108.656 86.5781C108.305 86.3906 107.992 86.168 107.719 85.9102C107.453 85.6445 107.238 85.3359 107.074 84.9844C106.918 84.625 106.84 84.207 106.84 83.7305C106.84 82.8555 107.012 82.125 107.355 81.5391C107.707 80.9453 108.168 80.4727 108.738 80.1211C109.309 79.7617 109.957 79.5078 110.684 79.3594C111.41 79.2109 112.148 79.1367 112.898 79.1367C113.414 79.1367 113.957 79.1914 114.527 79.3008C115.098 79.4023 115.652 79.5586 116.191 79.7695C116.73 79.9727 117.234 80.2227 117.703 80.5195C118.172 80.8164 118.562 81.1562 118.875 81.5391L116.566 83.4375C116.395 82.9688 116.168 82.5664 115.887 82.2305C115.613 81.8945 115.312 81.6211 114.984 81.4102C114.664 81.1914 114.332 81.0312 113.988 80.9297C113.652 80.8281 113.34 80.7773 113.051 80.7773C112.77 80.7773 112.453 80.7891 112.102 80.8125C111.75 80.8359 111.418 80.9023 111.105 81.0117C110.801 81.1211 110.539 81.2891 110.32 81.5156C110.109 81.7344 110.004 82.0391 110.004 82.4297C110.004 82.7109 110.066 82.9531 110.191 83.1562C110.324 83.3516 110.496 83.5234 110.707 83.6719C110.918 83.8125 111.156 83.9336 111.422 84.0352C111.695 84.1289 111.973 84.2148 112.254 84.293C112.535 84.3633 112.809 84.4258 113.074 84.4805C113.34 84.5352 113.578 84.5938 113.789 84.6562C114.148 84.7578 114.527 84.8633 114.926 84.9727C115.332 85.0742 115.73 85.1953 116.121 85.3359C116.512 85.4688 116.887 85.6289 117.246 85.8164C117.613 85.9961 117.934 86.2188 118.207 86.4844C118.48 86.75 118.699 87.0625 118.863 87.4219C119.027 87.7734 119.109 88.1914 119.109 88.6758Z" fill="#FFFBFB"/>
<defs>
<linearGradient id="paint0_linear_134_320" x1="68.0447" y1="0" x2="68.0447" y2="140" gradientUnits="userSpaceOnUse">
<stop stop-color="#8A8EF1"/>
<stop offset="1"/>
</linearGradient>
</defs>
</svg>
