<svg width="107" height="97" viewBox="0 0 107 97" fill="none" xmlns="http://www.w3.org/2000/svg">
<path d="M10.6839 81.8586C10.6839 82.1467 10.4502 82.3826 10.1599 82.3826C9.8696 82.3826 9.63599 82.1489 9.63599 81.8586C9.63599 81.5683 9.8696 81.3347 10.1599 81.3347C10.4502 81.3347 10.6839 81.5683 10.6839 81.8586Z" fill="white"/>
<path d="M15.5218 83.2059C15.5218 83.3692 15.3902 83.503 15.2269 83.503C15.0636 83.503 14.9298 83.3715 14.9298 83.2059C14.9298 83.0403 15.0614 82.9088 15.2269 82.9088C15.3925 82.9088 15.5218 83.0403 15.5218 83.2059Z" fill="white"/>
<path d="M91.5428 81.1532C91.5428 81.3551 91.3795 81.5184 91.1777 81.5184C90.9758 81.5184 90.8125 81.3551 90.8125 81.1532C90.8125 80.9514 90.9758 80.7881 91.1777 80.7881C91.3795 80.7881 91.5428 80.9514 91.5428 81.1532Z" fill="white"/>
<path d="M95.5892 85.592C95.8597 85.592 96.0791 85.3726 96.0791 85.102C96.0791 84.8315 95.8597 84.6121 95.5892 84.6121C95.3186 84.6121 95.0992 84.8315 95.0992 85.102C95.0992 85.3726 95.3186 85.592 95.5892 85.592Z" fill="white"/>
<path d="M104.886 78.1026C104.886 78.4564 104.598 78.7445 104.244 78.7445C103.891 78.7445 103.602 78.4564 103.602 78.1026C103.602 77.7488 103.891 77.4607 104.244 77.4607C104.598 77.4607 104.886 77.7488 104.886 78.1026Z" fill="white"/>
<path d="M59.1607 68.9484C59.4513 68.9484 59.6869 68.7128 59.6869 68.4222C59.6869 68.1316 59.4513 67.896 59.1607 67.896C58.8701 67.896 58.6345 68.1316 58.6345 68.4222C58.6345 68.7128 58.8701 68.9484 59.1607 68.9484Z" fill="white"/>
<path d="M36.713 63.9131C36.713 64.1898 36.4884 64.4144 36.2117 64.4144C35.935 64.4144 35.7104 64.1898 35.7104 63.9131C35.7104 63.6364 35.935 63.4119 36.2117 63.4119C36.4884 63.4119 36.713 63.6364 36.713 63.9131Z" fill="white"/>
<path d="M17.3023 89.4591C17.3023 89.7608 17.0596 90.0035 16.7579 90.0035C16.4563 90.0035 16.2136 89.7608 16.2136 89.4591C16.2136 89.1575 16.4563 88.9148 16.7579 88.9148C17.0596 88.9148 17.3023 89.1575 17.3023 89.4591Z" fill="white"/>
<path d="M32.8322 89.4705C32.985 89.4705 33.1089 89.3466 33.1089 89.1938C33.1089 89.0409 32.985 88.9171 32.8322 88.9171C32.6794 88.9171 32.5555 89.0409 32.5555 89.1938C32.5555 89.3466 32.6794 89.4705 32.8322 89.4705Z" fill="white"/>
<path d="M73.1868 89.4228C73.1868 89.7018 72.96 89.9309 72.6787 89.9309C72.3975 89.9309 72.1707 89.7041 72.1707 89.4228C72.1707 89.1416 72.3975 88.9148 72.6787 88.9148C72.96 88.9148 73.1868 89.1416 73.1868 89.4228Z" fill="white"/>
<path d="M59.1607 79.4022C59.1607 79.5474 59.0427 79.6653 58.8976 79.6653C58.7524 79.6653 58.6345 79.5474 58.6345 79.4022C58.6345 79.2571 58.7524 79.1391 58.8976 79.1391C59.0427 79.1391 59.1607 79.2571 59.1607 79.4022Z" fill="white"/>
<path d="M53.0322 78.1026C53.1274 78.1026 53.2046 78.0254 53.2046 77.9302C53.2046 77.835 53.1274 77.7578 53.0322 77.7578C52.937 77.7578 52.8598 77.835 52.8598 77.9302C52.8598 78.0254 52.937 78.1026 53.0322 78.1026Z" fill="white"/>
<path d="M27.8536 16.5636L37.221 24.5769C37.221 24.5769 39.1671 22.7851 40.6232 21.5535C43.091 19.4645 46.0668 16.5636 46.0668 16.5636L48.8634 19.2718C48.8634 19.2718 46.2686 24.654 44.3158 29.5691C43.2429 32.2682 41.7324 34.2392 40.5892 35.4662C39.7251 36.3939 38.3279 36.5799 37.2573 35.904L24.6987 27.9814L27.8536 16.5659V16.5636Z" fill="#F6C3B9"/>
<path d="M47.7089 18.1513C46.7291 19.4033 45.976 20.8912 45.3024 22.302C44.4949 23.994 43.5378 25.618 42.8936 27.3735C42.0839 29.5759 40.1084 33.3909 37.2029 31.971C34.9416 30.8665 33.0318 28.0222 32.3264 25.6565C31.7639 23.7717 31.5235 21.955 31.2513 20.018C31.2241 19.8297 31.1991 19.621 31.1697 19.401L27.8536 16.5636L24.6987 27.9791L37.2573 35.9017C38.3279 36.5776 39.7251 36.3916 40.5892 35.464C41.7324 34.2369 43.2429 32.2682 44.3158 29.5668C46.2686 24.6518 48.8634 19.2695 48.8634 19.2695L47.7089 18.1513Z" fill="#D88877"/>
<path d="M38.9448 23.0165C38.0012 23.8579 37.221 24.5769 37.221 24.5769L34.8463 34.3798L37.2573 35.8995C38.3278 36.5754 39.725 36.3894 40.5892 35.4617C41.7323 34.2347 43.2429 32.2659 44.3157 29.5646C44.377 29.4126 44.4359 29.2606 44.4972 29.1087L38.9448 23.0142V23.0165Z" fill="#FFCC4C"/>
<path d="M42.8981 27.3577C42.8981 27.3577 42.8936 27.369 42.8913 27.3736C42.0816 29.5759 40.1061 33.3909 37.2006 31.9711C36.6698 31.7125 36.1595 31.3541 35.6787 30.9323L34.844 34.3798L37.255 35.8995C38.3256 36.5754 39.7227 36.3894 40.5869 35.4617C41.73 34.2347 43.2406 32.2659 44.3135 29.5646C44.3747 29.4126 44.4337 29.2606 44.4949 29.1087L42.8959 27.3554L42.8981 27.3577Z" fill="#EBA443"/>
<path d="M38.6431 17.4709C39.3508 17.3438 40.1537 17.2985 40.7979 16.9174C41.5237 16.4888 41.9251 15.6201 42.1928 14.8602C42.3697 14.359 42.5579 14.0981 43.0025 13.8124C43.4312 13.5356 43.4425 13.4472 43.7033 12.9868C43.7805 12.8507 43.8372 12.7123 43.878 12.5717C43.9755 12.2315 43.6058 11.948 43.3087 12.143C42.6963 12.5467 42.0521 12.701 41.2243 12.9505C40.8069 13.0752 39.9087 13.0798 39.6094 13.4018C39.3712 13.6559 39.3417 14.1571 39.2601 14.4792C39.1353 14.9714 39.0174 15.4658 38.9062 15.9626C38.8042 16.4162 38.727 16.956 38.6431 17.4709Z" fill="#030303"/>
<path d="M6.25641 38.3059C6.25641 38.3059 12.3463 64.986 20.8881 72.1647L42.8528 87.3271L45.4611 83.3579C45.4611 83.3579 42.0589 78.2546 40.5846 73.8317C39.1103 69.4089 33.3084 66.0067 29.4708 66.1201L26.4088 36.9745L6.25641 38.3059Z" fill="#4E4979"/>
<path d="M26.4088 36.9768L6.25641 38.3082C6.25641 38.3082 6.67148 40.1227 7.43357 42.9307C11.0104 44.4707 19.1757 47.6665 27.654 48.8165L26.411 36.9791L26.4088 36.9768Z" fill="#030303"/>
<path d="M20.8881 72.1669L42.8528 87.3294L45.4611 83.3602C45.4611 83.3602 42.0589 78.2569 40.5846 73.834C39.1103 69.4111 33.3084 66.0089 29.4708 66.1224L20.7566 72.0513C20.7997 72.0898 20.845 72.1306 20.8881 72.1669Z" fill="#FFCC4C"/>
<path d="M29.8042 66.1201L24.186 74.4418L20.7566 72.0512L29.4708 66.1223L29.8042 66.1201Z" fill="#030303"/>
<path d="M39.1943 84.8027L42.8528 87.3271L45.4611 83.3579C45.4611 83.3579 44.6423 82.1853 43.3903 79.8786L39.1943 84.8027Z" fill="#877DAE"/>
<path d="M26.4088 36.9768C26.4088 36.9768 31.2853 40.9211 31.3987 46.943C31.5121 52.9649 20.2621 64.9883 20.2621 64.9883C20.2621 64.9883 26.4904 66.179 27.5202 69.241C28.5499 72.303 30.3984 75.8005 32.5532 77.2747L30.6252 80.7904L11.0127 71.339C11.0127 71.339 8.82847 69.4111 9.2821 66.0089C9.73572 62.6067 17.2999 39.812 17.2999 39.812L26.4065 36.9768H26.4088Z" fill="#8A8EF1"/>
<path d="M32.5531 77.2725C30.3984 75.7982 28.5522 72.3007 27.5202 69.2388C26.4882 66.1768 20.2621 64.986 20.2621 64.986C20.2621 64.986 31.5121 52.9649 31.3987 46.9407C31.2853 40.9166 26.4088 36.9745 26.4088 36.9745L23.4443 37.8977C24.0817 38.5123 24.6056 39.3425 25.1182 39.9413C26.318 41.3362 27.2003 43.0169 27.4476 44.8586C27.8309 47.7278 27.375 50.7036 25.7896 53.1622C24.254 55.5415 22.2195 57.6735 20.3687 59.8124C19.3481 60.9918 18.0983 62.1985 17.3952 63.6047C16.9461 64.5006 16.6943 65.5553 16.9393 66.5193C17.5245 68.8192 19.4751 68.8373 21.3826 69.6334C23.4126 70.4817 24.7825 71.9492 26.1978 73.5822C27.3795 74.9454 28.3321 76.4968 29.4503 77.9121C29.9493 78.5426 30.5118 79.214 31.1288 79.8808L32.5577 77.2748L32.5531 77.2725Z" fill="#4E4979"/>
<path d="M14.6191 48.0317C14.6486 47.9954 14.6781 47.9614 14.7075 47.9228C15.295 47.2038 15.667 46.3419 16.2181 45.5957C16.8305 44.7678 17.7219 44.2054 18.4885 43.5363C20.548 41.7399 22.9182 40.9642 25.3496 39.7734C26.1253 39.3924 26.994 38.9455 27.8537 38.4216C27.0417 37.4894 26.4089 36.9768 26.4089 36.9768L17.3023 39.812C17.3023 39.812 16.0956 43.4478 14.6168 48.0317H14.6191Z" fill="#030303"/>
<path d="M32.5532 77.2725C30.3985 75.7982 28.5522 72.3008 27.5202 69.2388C26.4882 66.1768 20.2622 64.986 20.2622 64.986L9.63599 69.1979C10.1645 70.5883 11.015 71.3368 11.015 71.3368L30.6276 80.7881L32.5555 77.2725H32.5532Z" fill="#FFCC4C"/>
<path d="M27.5225 69.241C26.4905 66.1791 20.2644 64.9883 20.2644 64.9883L13.8071 67.5467C14.6168 67.6715 15.4447 67.7645 16.2226 67.9845C18.3547 68.5878 20.6455 69.6697 22.4804 70.9058C23.8368 71.8199 24.5353 73.0129 25.4267 74.333C26.3929 75.7619 27.5429 76.8778 28.9582 77.8599C29.6953 78.3725 30.5323 78.9101 31.4191 79.3433L32.5555 77.2725C30.4007 75.7982 28.5545 72.3007 27.5225 69.2388V69.241Z" fill="#EBA443"/>
<path d="M30.437 75.1019L27.4861 79.2775L30.6252 80.7904L32.5532 77.2748C31.7638 76.735 31.0335 75.9547 30.437 75.1042V75.1019Z" fill="#E4D9F0"/>
<path d="M32.5532 77.2725C31.7639 76.7327 31.0335 75.9547 30.437 75.1019L28.8924 77.2884C29.1487 77.5492 29.3959 77.7942 29.6023 77.9597C30.1875 78.4293 30.8793 78.7536 31.5325 79.1414L32.5554 77.2748L32.5532 77.2725Z" fill="#877DAE"/>
<path d="M18.5089 2.3492C18.5089 2.3492 19.9265 3.2746 20.0149 4.74889C20.0149 4.74889 19.6634 5.56088 20.1533 6.03492L20.7838 6.69268C20.8768 6.79021 20.8541 6.94898 20.7362 7.01702L20.3053 7.26425L20.4731 9.53919C20.4731 9.83858 20.2349 10.0858 19.9355 10.0926L18.0621 9.9656L18.1755 12.4605L19.0396 12.3857C19.0396 12.3857 20.4187 15.6359 20.6001 17.4141L18.6858 18.0379L10.6861 13.1614L12.4053 12.8779C12.4053 12.8779 13.0858 10.0427 13.0109 8.90865C13.0109 8.90865 10.863 7.66571 11.0263 4.90085C11.1896 2.136 15.3925 0.212621 18.5112 2.3492H18.5089Z" fill="#F6C3B9"/>
<path d="M18.5089 2.3492C15.3902 0.212621 11.1873 2.136 11.024 4.90085C10.9401 6.31844 11.4641 7.33456 11.9948 7.99005C13.7186 7.20755 17.4134 5.56088 19.999 4.62187C19.8403 3.22244 18.5089 2.3492 18.5089 2.3492Z" fill="#D88877"/>
<path d="M18.0598 9.96561C18.0598 9.96561 15.8801 9.89076 15.2768 8.77484C15.2768 8.77484 15.4333 10.8139 18.1324 11.5715L18.0598 9.96561Z" fill="#D88877"/>
<path d="M12.3464 9.13547C12.3464 9.13547 9.76523 7.54777 10.618 3.60575C11.4709 -0.336262 15.744 -0.107181 16.6853 0.0901468C17.9056 0.344178 20.4277 1.39432 20.5978 3.85979L16.2022 5.33407L16.3905 7.7882C16.4676 8.80886 15.5739 9.63446 14.5646 9.47795L12.3486 9.1332L12.3464 9.13547Z" fill="#FFCC4C"/>
<path d="M20.5956 3.86204C20.4255 1.39431 17.9011 0.346434 16.6831 0.0924028C16.2158 -0.00512694 14.9321 -0.109461 13.6506 0.287463C14.8028 0.0107501 15.8938 0.103744 16.3156 0.192201C17.5336 0.446232 20.0581 1.49638 20.2282 3.96184L20.5956 3.86204Z" fill="#F8CC76"/>
<path d="M19.1349 4.05712C18.7879 3.80309 18.3547 3.58535 17.9305 3.49009C17.2955 3.34493 16.6626 3.46968 16.1659 3.88928C15.0364 4.8419 14.7506 7.06921 12.8431 6.43413C11.6387 6.03267 11.0014 4.95077 10.8426 3.73278C10.8109 3.49916 10.795 3.2474 10.7927 2.98883C10.7247 3.18389 10.6657 3.38802 10.6181 3.60803C9.76752 7.55005 12.3464 9.13774 12.3464 9.13774L14.5624 9.4825C15.5739 9.639 16.4676 8.8134 16.3882 7.79274L16.1999 5.33862L19.4094 4.26125C19.3164 4.19321 19.2234 4.12743 19.1304 4.05939L19.1349 4.05712Z" fill="#EBA443"/>
<path d="M19.0263 3.16402L20.5396 2.74748L20.8568 3.89993L19.3435 4.31646C19.2232 4.34957 19.0978 4.27825 19.0646 4.15798L18.8678 3.44289C18.8347 3.32262 18.906 3.19713 19.0263 3.16402Z" fill="white"/>
<path d="M19.8334 3.56041C19.8334 3.46061 19.9128 3.38123 20.0126 3.38123C20.1124 3.38123 20.1918 3.46061 20.1918 3.56041C20.1918 3.66021 20.1124 3.73959 20.0126 3.73959C19.9128 3.73959 19.8334 3.66021 19.8334 3.56041Z" fill="#4E4979"/>
<path d="M19.0896 3.72827L16.2975 4.54253C15.4946 4.77615 15.0115 5.59268 15.1906 6.40694L15.9369 9.80007C16.1251 10.6552 16.9689 11.1972 17.8239 11.0113L22.2128 10.0609L21.5505 6.82881L15.5989 8.26" stroke="#E4D9F0" stroke-width="2" stroke-linecap="round" stroke-linejoin="round"/>
<path d="M18.7584 10.8094L19.5091 10.6461" stroke="white" stroke-width="2" stroke-linecap="round" stroke-linejoin="round"/>
<path d="M15.1906 6.40691L21.1535 4.7489" stroke="#E4D9F0" stroke-width="2" stroke-linecap="round" stroke-linejoin="round"/>
<path d="M19.1031 5.32047L19.9151 5.09366" stroke="white" stroke-width="2" stroke-linecap="round" stroke-linejoin="round"/>
<path d="M15.8529 9.41674L21.7863 7.97647" stroke="#E4D9F0" stroke-width="2" stroke-linecap="round" stroke-linejoin="round"/>
<path d="M19.7722 7.25519L20.7521 10.3761" stroke="#E4D9F0" stroke-width="2" stroke-linecap="round" stroke-linejoin="round"/>
<path d="M16.5378 4.4722L18.0666 10.9591" stroke="#E4D9F0" stroke-width="2" stroke-linecap="round" stroke-linejoin="round"/>
<path d="M15.5195 5.05286C15.3471 5.26152 15.2269 5.51329 15.1793 5.7832" stroke="white" stroke-width="2" stroke-linecap="round" stroke-linejoin="round"/>
<path d="M11.3824 13.2181C11.3824 13.2181 10.7632 11.6917 10.8721 10.9591C11.0422 9.82725 12.9021 10.3784 12.9021 10.3784L12.6866 11.5737C12.6866 11.5737 16.733 14.1254 17.3045 17.0172L11.3847 13.2181H11.3824Z" fill="#8A8EF1"/>
<path d="M2.7635 14.9759L9.54522 12.7418C10.8018 12.3267 12.1921 12.4379 13.3239 13.1228C13.5734 13.2748 13.8184 13.454 14.0452 13.6717C15.4061 14.9759 18.4114 17.244 18.4114 17.244L19.9968 16.7904C19.9968 16.7904 19.7019 14.1208 18.1709 12.4628V11.9706L21.1513 11.3469C21.1513 11.3469 24.1384 10.3784 27.4839 12.4243C27.4839 12.4243 29.4708 13.8418 29.4685 16.2234C29.4685 17.9812 26.4065 33.7447 26.4065 33.7447L27.3138 37.317C27.3138 37.317 23.0021 42.874 15.5195 43.0441C8.03464 43.2142 5.31288 39.6986 5.31288 39.6986L6.27684 36.3531L1.62716 29.3219C1.62716 29.3219 -1.20801 22.9144 0.606502 18.0379C0.606502 18.0379 1.91068 15.2572 2.76123 14.9759H2.7635Z" fill="white"/>
<path d="M27.4862 12.4243C24.1407 10.3784 21.1535 11.3469 21.1535 11.3469L18.1732 11.9706V12.4628C19.7042 14.1208 19.9991 16.7904 19.9991 16.7904L18.4136 17.244C18.4136 17.244 15.4083 14.9759 14.0475 13.6717C13.8207 13.454 13.5757 13.2725 13.3262 13.1228C12.1921 12.4401 10.804 12.329 9.54749 12.7418L2.95856 14.9124C3.57549 14.9215 4.2083 14.9918 4.71183 15.0712C7.00718 15.4341 8.91241 16.4253 10.6249 17.9472C12.3736 19.5031 13.9363 21.6714 16.4834 21.7055C18.1097 21.7259 19.5386 20.8731 20.9653 20.1563C22.494 19.3874 23.8163 18.8522 25.5832 18.9089C26.6606 18.9429 27.679 19.1856 28.7291 19.4373C28.8289 19.4623 28.9287 19.4804 29.0262 19.5008C29.2939 17.8769 29.4708 16.6498 29.4708 16.2257C29.4708 13.8441 27.4862 12.4265 27.4862 12.4265V12.4243Z" fill="#E4D9F0"/>
<path d="M20.1397 25.9696L20.1442 26.8633C20.1533 28.3398 19.7631 29.4535 18.958 30.1884V30.2337C19.8312 30.4628 20.2644 31.4608 20.2757 33.1619L20.2825 34.3481C20.2962 36.7637 19.2755 38.5328 17.4859 39.1203C15.6964 39.7077 14.6598 38.6145 14.6462 36.2012L14.6394 35.015C14.6304 33.3161 15.05 32.0346 15.9187 31.234V31.1886C15.1089 30.9845 14.7075 30.1294 14.6984 28.6551L14.6939 27.7615C14.6803 25.3459 15.6692 23.5881 17.3952 23.0211C19.1213 22.454 20.126 23.5563 20.1397 25.9719V25.9696ZM16.3156 34.0828L16.3224 35.4913C16.3292 36.6548 16.7443 37.1674 17.4723 36.927C18.2004 36.6866 18.6087 35.9041 18.6019 34.7405L18.5951 33.332C18.5882 32.1685 18.1732 31.6559 17.4451 31.8963C16.717 32.1367 16.3088 32.9192 16.3156 34.0828ZM16.3723 27.2307L16.3791 28.3716C16.3859 29.4444 16.7533 29.9298 17.4338 29.7053C18.1142 29.4807 18.4748 28.7572 18.468 27.6843L18.4612 26.5435C18.4544 25.4706 18.087 24.9853 17.4065 25.2098C16.7261 25.4344 16.3655 26.1579 16.37 27.2307H16.3723Z" fill="#8A8EF1"/>
<path d="M26.7558 23.7945L26.7604 24.6882C26.7694 26.1647 26.3793 27.2784 25.5741 28.0132V28.0586C26.4474 28.2877 26.8806 29.2857 26.8919 30.9868L26.8987 32.173C26.9123 34.5886 25.8917 36.3577 24.1497 36.9293C22.4078 37.5008 21.3713 36.4099 21.3577 33.9943L21.3509 32.8081C21.3418 31.1092 21.7614 29.8277 22.6301 29.0271V28.9817C21.8204 28.7776 21.4189 27.9248 21.4098 26.4482L21.4053 25.5546C21.3917 23.139 22.3806 21.3812 24.059 20.8278C25.7374 20.2766 26.7422 21.3789 26.7558 23.7945ZM23.027 31.8759L23.0338 33.2844C23.0406 34.4479 23.4557 34.9605 24.1361 34.736C24.8166 34.5114 25.2248 33.7289 25.218 32.5654L25.2112 31.1569C25.2044 29.9933 24.7893 29.4807 24.1089 29.7053C23.4285 29.9298 23.0202 30.7123 23.027 31.8759ZM23.0837 25.0238L23.0905 26.1647C23.0973 27.2375 23.4648 27.7229 24.0976 27.5142C24.7304 27.3056 25.091 26.582 25.0865 25.5092L25.0797 24.3683C25.0729 23.2955 24.7054 22.8101 24.0726 23.0188C23.4398 23.2275 23.0792 23.951 23.086 25.0238H23.0837Z" fill="#8A8EF1"/>
<path d="M18.1233 11.3764C18.1233 11.3764 19.8335 12.9051 19.7722 15.6496C19.7722 15.6496 19.2437 13.7557 18.1732 12.4606L18.1233 11.3764Z" fill="#8A8EF1"/>
<path d="M30.6253 80.7881L30.437 81.2417C30.437 81.2417 31.3057 81.43 32.4035 82.6774C33.5013 83.9249 36.561 88.0076 36.7129 91.4483V92.7706C36.7129 92.7706 39.3213 93.2628 39.7364 90.6545C40.1514 88.0461 38.1872 82.1104 38.1872 82.1104C38.1872 82.1104 38.3006 78.4065 37.5453 77.7624C37.5453 77.7624 33.1815 77.7851 32.5555 77.2702L30.6275 80.7858L30.6253 80.7881Z" fill="#292126"/>
<path d="M37.5431 77.7647C37.5431 77.7647 37.2414 77.7647 36.7855 77.7579C37.1711 79.6586 37.2392 82.5073 37.2392 82.5073C37.2392 82.5073 39.2238 88.6313 38.8836 90.4458C38.6318 91.7863 37.3594 92.1356 36.713 92.2286V92.7707C36.713 92.7707 39.3213 93.2628 39.7364 90.6545C40.1514 88.0461 38.1872 82.1104 38.1872 82.1104C38.1872 82.1104 38.3006 78.4066 37.5454 77.7624L37.5431 77.7647Z" fill="white"/>
<path d="M42.8527 87.3294L47.956 94.3606C47.956 94.3606 45.8013 94.8709 45.0642 96.572H51.8119C51.8119 96.572 53.0593 93.51 52.8325 91.9496C52.6057 90.3891 50.1675 90.8427 49.8839 87.6129V84.0406C49.8839 84.0406 48.0694 83.0199 45.4611 83.3601L42.8527 87.3294Z" fill="#030303"/>
<path d="M49.884 87.6129V84.0406C49.884 84.0406 49.3963 83.7684 48.5662 83.5507C48.573 85.2608 48.5934 87.5199 48.6365 88.6131C48.7114 90.5025 51.4331 91.7137 51.5851 92.8092C51.7371 93.9047 50.6778 95.8712 50.6778 95.8712H45.4952C45.3273 96.0798 45.1776 96.3089 45.0642 96.5697H51.8119C51.8119 96.5697 53.0594 93.5078 52.8326 91.9473C52.6058 90.3868 50.1675 90.8404 49.884 87.6106V87.6129Z" fill="#E4D9F0"/>
<path d="M5.31519 29.4149L12.7252 22.0049L19.1054 27.081C19.1054 27.081 21.9837 24.1959 25.8599 23.1389C29.7362 22.082 34.7261 18.0356 34.7261 18.0356L37.221 20.644C37.221 20.644 31.1923 34.6202 20.5979 38.7845C20.5979 38.7845 16.3542 40.3768 5.31519 29.4149Z" fill="#F6C3B9"/>
<path d="M37.221 20.6462L35.9055 19.2718C35.6288 19.6868 35.3725 20.0565 35.1412 20.306C34.4698 21.0364 33.8052 21.6601 33.0998 22.3224C31.308 24.0099 29.6477 25.3662 28.7087 27.7047C27.9444 29.6076 27.3138 31.6535 25.4358 32.7331C23.399 33.9058 21.0492 33.6291 18.924 33.062C17.0755 32.5676 15.0614 32.123 13.6823 30.6238C12.7932 29.6553 11.9654 28.6255 11.2396 27.5391C10.6521 26.6591 10.1939 25.8516 9.87187 24.8559L5.31519 29.4126C16.3542 40.3745 20.5979 38.7823 20.5979 38.7823C31.1923 34.6202 37.221 20.6417 37.221 20.6417V20.6462Z" fill="#D88877"/>
<path d="M20.1692 36.6729C21.301 36.6729 22.2922 37.0857 22.866 37.7094C23.9048 37.1356 24.8914 36.4756 25.8259 35.752L20.7045 25.745C19.6974 26.4912 19.1032 27.0855 19.1032 27.0855L17.427 25.7518L14.3423 36.8181C15.4174 37.4667 16.3406 37.9158 17.1208 38.2243C17.5472 37.3261 18.7493 36.6774 20.1669 36.6774L20.1692 36.6729Z" fill="#FFCC4C"/>
<path d="M22.866 37.7094C23.9048 37.1356 24.8914 36.4756 25.8259 35.752L24.5013 33.1641C22.7004 33.8151 20.7317 33.5474 18.924 33.0643C17.8443 32.7763 16.7103 32.5041 15.6783 32.0278L14.3446 36.8135C14.6077 36.9723 14.864 37.1197 15.109 37.2558C15.1203 37.2626 15.1294 37.2672 15.1407 37.2717C15.8824 37.6822 16.5424 37.9884 17.1231 38.2198C17.5495 37.3216 18.7516 36.6729 20.1692 36.6729C21.301 36.6729 22.2921 37.0857 22.866 37.7094Z" fill="#EBA443"/>
<path d="M37.2097 20.6462C37.4773 20.3015 37.6973 19.8773 37.9763 19.519C38.2553 19.1583 38.6658 18.8998 38.9697 18.5482C39.4733 17.963 39.9655 17.455 40.3352 16.77C40.8931 15.7334 41.0814 14.4724 41.2379 13.3269C41.2968 12.9005 41.2492 12.5603 41.4352 12.177C41.6484 11.7393 41.8367 11.3038 42.1111 10.9C42.4355 10.4192 43.0819 10.1924 43.5174 9.80453C43.7736 9.57545 44.1456 9.2307 44.2726 8.91089C44.3679 8.67273 44.2726 8.18282 44.2726 8.18282C44.0504 8.43912 42.4785 9.26472 42.0136 9.45297C42.4014 9.16038 42.7847 8.60242 43.0683 8.2055C43.3745 7.77455 43.7283 7.38897 43.9392 6.90359C44.1865 6.32975 44.2545 5.96912 43.9392 5.43384C43.354 6.35016 42.406 7.02834 41.5985 7.7496C40.7026 8.55025 39.6411 9.14451 38.5433 9.63442C38.1623 9.80453 37.9967 9.94969 37.8992 10.3829C37.7699 10.9613 37.6542 11.5669 37.4501 12.1294C36.9148 13.6059 35.9599 14.8693 35.4541 16.3413C35.1139 17.3302 34.3201 18.0379 34.3201 18.0379L37.2119 20.6462H37.2097Z" fill="#292126"/>
<path d="M42.0113 9.44847L40.1877 10.172L42.8142 8.55255C42.8142 8.55255 42.322 9.32599 42.0113 9.44847Z" fill="#030303"/>
<path d="M6.27912 36.3531L11.015 40.0751L5.74158 38.222L6.27912 36.3531Z" fill="#E4D9F0"/>
<path d="M18.4136 17.244L19.7745 18.8317L20.4368 18.6412L19.9991 16.7904L18.4136 17.244Z" fill="#FFCC4C"/>
<path d="M49.3873 18.3486C49.3873 18.3486 49.571 18.1853 49.9679 18.0946C51.8369 17.6591 52.6239 15.5225 52.9415 15.264C53.1887 15.0621 53.513 14.9578 53.7625 14.7536C54.012 15.0145 54.3545 15.2413 54.7129 15.3093C55.0009 15.3637 55.5044 15.3388 55.6859 15.0485C55.8265 14.8217 55.6496 14.7718 55.4727 14.647C55.2413 14.4814 55.0554 14.2637 54.8626 14.055C54.7083 13.8872 54.4929 13.4631 54.2842 13.3814C54.0733 13.2997 53.6695 13.454 53.4654 13.5175C53.1683 13.6105 52.8303 13.7035 52.515 13.7035C52.6307 13.5243 52.9324 13.3564 53.1025 13.209C53.3543 12.9958 53.5697 12.6511 53.8487 12.49C54.4566 12.1385 55.3162 12.2451 55.8174 11.6758C55.9966 11.4716 56.1032 11.1632 56.0488 10.891C56.0034 10.6596 55.9535 10.6551 55.7517 10.7322C55.3684 10.8774 55.044 11.0724 54.6312 11.1564C54.3386 11.2176 54.0483 11.3061 53.7534 11.3514C53.6355 11.3696 53.4813 11.3446 53.3724 11.3809C53.1456 11.4558 52.8711 11.6712 52.6534 11.7824C52.3926 11.9185 52.1249 12.0545 51.8437 12.1271C52.1181 11.8867 52.3041 11.5057 52.5309 11.2153C52.7305 10.9613 52.921 10.5485 53.2227 10.4169C53.4042 10.3376 53.6378 10.3308 53.826 10.2627C54.0937 10.1652 54.3295 10.0291 54.5677 9.87033C54.9533 9.61403 55.3434 9.36226 55.4545 8.88596C55.4908 8.73626 55.5838 8.40965 55.4636 8.27583C55.3026 8.10118 54.985 8.44821 54.824 8.54347C54.3432 8.82245 53.8033 9.04019 53.2545 9.13545C52.9573 9.18762 52.5581 9.18762 52.2905 9.31463C51.973 9.46433 51.7144 9.84311 51.4581 10.0722C51.2177 10.2854 50.916 10.4283 50.6733 10.6302C51.0566 9.69114 51.4581 8.641 52.0546 7.80632C52.5105 7.16671 52.9278 6.54071 52.8984 5.71964C52.8938 5.57221 52.8621 5.16168 52.6829 5.09817C52.4878 5.03013 52.3608 5.42705 52.2814 5.56314C51.8187 6.34111 50.8729 7.1032 50.4102 7.88344C49.757 8.98349 48.7704 11.086 48.7704 11.086C48.7704 10.7798 48.6955 10.4328 48.7704 10.1425C48.9495 9.45072 49.2194 8.92451 48.8679 8.21232C48.7386 7.95375 48.3167 7.32548 47.9516 7.48198C48.1149 7.88798 48.0899 8.34614 48.0241 8.78389C47.9311 9.41897 47.3709 9.80682 47.1759 10.4169C46.9581 11.0974 46.7767 11.7914 46.5408 12.4673C46.1461 13.5901 45.6471 15.0984 46.0985 16.2619L44.8079 17.6228L48.4868 20.0588L49.3873 18.3463V18.3486Z" fill="#030303"/>
<path d="M48.9382 10.7345C48.8339 10.9545 48.7681 11.0906 48.7681 11.0906C48.7681 10.7844 48.6932 10.4374 48.7681 10.147C48.9473 9.45526 49.2172 8.92906 48.8656 8.21686C48.7363 7.95829 48.3145 7.33002 47.9493 7.48652C48.1126 7.89252 48.0877 8.35068 48.0219 8.78843C47.9289 9.42351 47.3687 9.81136 47.1736 10.4215C46.9559 11.1019 46.7744 11.796 46.5385 12.4719C46.1439 13.5946 45.6449 15.1029 46.0962 16.2665L44.8057 17.6274L47.008 19.0858C47.4979 18.3645 47.9584 17.4414 48.3281 16.6679C48.8792 15.5225 49.4168 14.4542 49.1038 13.1432C48.8974 12.2723 48.852 11.6236 48.9314 10.7572C48.9314 10.7504 48.9314 10.7436 48.9337 10.7345H48.9382Z" fill="#292126"/>
<path d="M13.5825 7.12591C13.8581 7.12591 14.0815 6.9025 14.0815 6.62692C14.0815 6.35133 13.8581 6.12793 13.5825 6.12793C13.307 6.12793 13.0836 6.35133 13.0836 6.62692C13.0836 6.9025 13.307 7.12591 13.5825 7.12591Z" fill="#4E4979"/>
<path d="M94.2578 25.7495L95.4735 41.6809C95.4735 41.6809 97.855 45.9314 101.938 45.2237C106.02 44.5161 107.027 38.4443 106.467 36.319C105.907 34.1938 103.866 30.2767 104.886 24.781L94.2578 25.7473V25.7495Z" fill="#EBA443"/>
<path d="M95.4735 41.6787C95.4735 41.6787 97.855 45.9291 101.938 45.2215C106.02 44.5138 107.027 38.442 106.467 36.3168C106.34 35.8382 106.141 35.2689 105.916 34.6111C101.77 34.1689 96.9977 35.9652 95.1015 36.7749L95.4757 41.6787H95.4735Z" fill="white"/>
<path d="M104.886 24.781L94.2578 25.7473L94.691 31.4131C96.6393 30.279 100.729 28.0358 104.639 26.7475C104.68 26.117 104.759 25.4592 104.886 24.7788V24.781Z" fill="#030303"/>
<path d="M71.6195 15.1778C71.6195 15.1778 68.596 20.1336 67.462 20.7937C66.3279 21.4537 59.2218 26.0648 58.3894 30.8279C57.557 35.591 64.248 37.5574 67.9723 35.5161C71.6966 33.4748 79.1043 23.749 79.1043 23.749L71.6195 15.1778Z" fill="#EBA443"/>
<path d="M58.3894 30.8302C57.557 35.5932 64.248 37.5597 67.9723 35.5184C69.4784 34.6928 71.5855 32.6106 73.5633 30.4242C72.1253 29.0338 68.0109 25.4252 62.9166 24.1823C60.8594 26.0262 58.8136 28.4078 58.3894 30.8302Z" fill="white"/>
<path d="M71.6195 15.1778C71.6195 15.1778 70.338 17.2803 69.1291 18.927C70.1928 20.8731 71.9756 23.9668 72.9917 24.7788C73.6291 25.2891 74.5703 26.7498 75.4458 28.2694C77.5189 25.8312 79.1043 23.749 79.1043 23.749L71.6195 15.1778Z" fill="#030303"/>
<path d="M74.3799 37.7094C74.3799 37.7094 70.2972 47.916 69.957 53.4729C69.6168 59.0298 72.1684 70.0303 72.1684 70.0303C72.1684 70.0303 74.4706 72.0716 77.9976 71.5046C81.5245 70.9375 93.3188 68.8962 93.3188 68.8962L92.4501 64.927C92.4501 64.927 88.4038 64.5868 86.553 63.7929C84.6999 62.9991 81.6379 62.0918 80.0502 62.8857L87.3082 40.4493L74.3799 37.7094Z" fill="#EBA443"/>
<path d="M83.3345 52.7335L87.3082 40.4493L74.3799 37.7094C74.3799 37.7094 73.7652 39.2472 72.9918 41.4541C74.1054 42.3976 75.2531 43.5294 75.929 44.1441C77.528 45.598 78.5555 47.392 79.9731 49.0115C81.055 50.2476 82.1641 51.5178 83.3322 52.7335H83.3345Z" fill="#030303"/>
<path d="M72.1729 70.0348C72.2614 70.1119 74.5408 72.0603 77.9975 71.5046C81.5244 70.9375 93.3187 68.8962 93.3187 68.8962L92.45 64.927C92.45 64.927 88.4037 64.5868 86.5529 63.7929C84.9538 63.1079 82.4566 62.3413 80.7805 62.652L80.0501 62.8857L72.1729 70.0348Z" fill="#EED4C4"/>
<path d="M89.0342 69.6356C91.4793 69.216 93.3187 68.8962 93.3187 68.8962L92.4501 64.927C92.4501 64.927 90.2114 64.7387 88.3016 64.3146L89.032 69.6356H89.0342Z" fill="#8A8EF1"/>
<path d="M93.4321 40.81C93.4321 40.81 93.8858 46.3034 92.7517 49.5491C91.6176 52.7948 76.7614 70.3728 76.7614 70.3728C76.7614 70.3728 76.4211 75.9252 75.2871 77.8554C74.153 79.7856 65.1939 86.8168 65.1939 86.8168L62.4721 84.8889C62.4721 84.8889 66.4413 72.9812 67.9723 70.3728C69.5033 67.7645 71.6581 66.8549 71.6581 66.8549L79.8233 40.0116L93.4321 40.8122V40.81Z" fill="#FFCC4C"/>
<path d="M93.4322 40.8099L88.0884 40.4969C87.8117 41.4994 87.6666 42.6108 87.6053 43.9558C87.4579 47.1493 87.3944 49.7531 86.2104 52.7562C84.2961 57.6168 79.9231 60.4723 76.5708 64.2034C74.8062 66.1676 74.9537 68.8395 74.119 71.2074C73.4726 73.0423 72.4474 74.8069 71.3178 76.4151C69.458 79.062 67.301 81.4775 65.4388 84.129C65.0238 84.7187 64.5271 85.3402 64.0167 85.982L65.1939 86.8167C65.1939 86.8167 74.153 79.7855 75.2871 77.8553C76.4211 75.9251 76.7614 70.3727 76.7614 70.3727C76.7614 70.3727 91.6176 52.7947 92.7517 49.549C93.8858 46.3033 93.4322 40.8099 93.4322 40.8099Z" fill="#EBA443"/>
<path d="M93.4322 40.8099L79.8234 40.0093L77.7299 46.8908C78.1881 46.7479 85.2669 44.8177 89.7646 44.7406C90.8874 44.7225 92.9763 43.7835 93.4708 45.2509C93.6046 42.8921 93.4322 40.8077 93.4322 40.8077V40.8099Z" fill="#030303"/>
<path d="M71.6581 66.8527C71.6581 66.8527 69.5033 67.7622 67.9723 70.3705C66.4413 72.9789 62.4721 84.8866 62.4721 84.8866L65.1939 86.8145C65.1939 86.8145 74.153 79.7833 75.2871 77.8531C76.4211 75.9229 76.7614 70.3705 76.7614 70.3705L71.6581 66.8527Z" fill="white"/>
<path d="M74.119 71.2052C73.4726 73.0401 72.4474 74.8047 71.3178 76.4128C69.458 79.0597 67.301 81.4753 65.4388 84.1268C65.0238 84.7165 64.5271 85.3379 64.0167 85.9798L65.1939 86.8145C65.1939 86.8145 74.153 79.7833 75.2871 77.8531C76.4211 75.9229 76.7614 70.3705 76.7614 70.3705L74.6974 68.9484C74.5409 69.7105 74.3776 70.4726 74.119 71.2052Z" fill="#EED4C4"/>
<path d="M63.6856 81.337C62.9734 83.3874 62.4721 84.8889 62.4721 84.8889L65.1939 86.8168C65.1939 86.8168 66.65 85.6736 68.4623 84.1835L63.6856 81.337Z" fill="#487F97"/>
<path d="M65.3391 86.6988C65.3686 86.6761 65.4026 86.6489 65.4389 86.6194C65.4434 86.6149 65.4502 86.6103 65.4547 86.6058C65.5341 86.5423 65.6294 86.4674 65.7383 86.3813C65.7428 86.3767 65.7473 86.3745 65.7519 86.3699C66.1034 86.0909 66.5979 85.694 67.1831 85.2222C67.5732 84.9047 68.0041 84.5554 68.4578 84.1834L66.3212 82.911C66.0195 83.3125 65.7224 83.7162 65.4343 84.129C65.0193 84.7187 64.5225 85.3402 64.0122 85.9821L65.1894 86.8167C65.1894 86.8167 65.1962 86.8099 65.2098 86.8009C65.2325 86.7827 65.2756 86.751 65.3345 86.7011L65.3391 86.6988Z" fill="#8A8EF1"/>
<path d="M87.374 13.5038L81.0708 11.2289C81.0708 11.2289 77.0449 10.0994 76.0242 10.6641C75.0036 11.2289 73.3025 11.1155 72.2818 11.6825C71.2612 12.2496 68.181 16.2301 68.181 16.2301C68.181 16.2301 68.7118 17.3824 69.1064 18.0356C69.6031 18.8589 74.4932 23.5902 74.4932 23.5902L74.5499 34.4773L72.622 38.4465C72.622 38.4465 79.9935 44.1169 82.5451 44.287C85.0968 44.4571 94.4528 43.6632 94.4528 43.6632V36.3485C94.4528 36.3485 95.9838 33.57 96.721 31.5854C97.4581 29.6008 98.0818 27.9564 98.0818 27.9564L105.68 25.9151C105.68 25.9151 106.701 22.649 106.417 20.7959C106.134 18.9406 103.525 15.3093 103.525 15.3093C103.525 15.3093 100.804 13.9529 96.8911 14.2932C92.9785 14.6334 87.374 13.5061 87.374 13.5061V13.5038Z" fill="#8BC88E"/>
<path d="M103.525 15.307C103.525 15.307 100.804 13.9507 96.891 14.2909C92.9785 14.6311 87.374 13.5038 87.374 13.5038L81.0708 11.2289C81.0708 11.2289 77.0449 10.0994 76.0242 10.6641C75.6205 10.8864 75.1124 11.0044 74.5794 11.0996C75.8201 12.9255 75.6296 16.7836 76.2374 18.2647C76.9451 19.9907 78.0587 20.5827 79.6827 21.2949C81.9304 22.2815 83.1711 24.4045 85.378 25.3526C88.2926 26.6023 91.2003 26.4231 93.7724 24.6427C95.6141 23.368 96.3807 21.998 97.5601 20.2017C98.6851 18.4892 100.028 17.895 101.99 18.2102C103.416 18.4393 104.58 18.7727 105.889 19.2536C105.043 17.4277 103.525 15.3093 103.525 15.3093V15.307Z" fill="#8BC88E"/>
<path d="M77.4599 34.5045L77.5597 34.0532L79.279 34.3503L79.2087 34.6678C78.9955 35.6182 79.2676 36.1353 79.9662 36.2918C80.7011 36.4551 81.1751 36.0537 81.3679 35.1872L81.8079 33.2185C82.0007 32.3521 81.7263 31.7805 81.0096 31.6217C80.4085 31.4879 79.9481 31.7533 79.7394 32.3725L79.6714 32.6016L78.0519 32.1706L79.9118 25.5635L84.6817 26.6296L84.3097 28.2966L81.0889 27.5776L80.3246 30.2971L80.3586 30.3039C80.6716 30.0771 81.157 29.9388 81.8578 30.0953C83.3253 30.4241 84.0126 31.6625 83.602 33.4975L83.1099 35.6998C82.7084 37.5007 81.4178 38.3354 79.6509 37.9407C77.8818 37.5461 77.063 36.2759 77.4577 34.5091L77.4599 34.5045Z" fill="white"/>
<path d="M89.6148 35.6771L90.4314 35.8586L90.0662 37.4939L89.2497 37.3125L88.6985 39.7825L86.9294 39.3878L87.4805 36.9178L83.7767 36.0899L84.1055 34.6224L89.5536 27.7137L91.3046 28.1038L89.6126 35.6771H89.6148ZM88.7439 31.1046L85.877 34.8425L87.8457 35.2825L88.7779 31.1114L88.7439 31.1046Z" fill="white"/>
<path d="M85.4574 12.8121C85.4574 12.8461 85.4551 12.8756 85.4551 12.9096V23.749L87.4511 24.18C87.4511 24.18 91.5337 18.7024 91.0189 14.0686C88.9526 13.8214 87.374 13.5039 87.374 13.5039L85.4574 12.8121Z" fill="white"/>
<path d="M88.7099 22.2112L85.4551 21.3743V23.749L87.4511 24.1799C87.4511 24.1799 88.0227 23.4133 88.7099 22.2112Z" fill="#EBA443"/>
<path d="M85.5073 12.6488L85.2668 15.1777C85.2668 15.1777 85.4188 17.9199 88.0635 18.0333C90.7104 18.1467 91.0869 15.341 91.0869 15.341L90.8533 12.5376L85.5073 12.6488Z" fill="#521D0A"/>
<path d="M91.2978 12.6293C93.6025 10.9702 94.1258 7.7569 92.4666 5.45222C90.8075 3.14753 87.5942 2.62421 85.2895 4.28334C82.9848 5.94248 82.4615 9.15579 84.1206 11.4605C85.7798 13.7652 88.9931 14.2885 91.2978 12.6293Z" fill="#487F97"/>
<path d="M93.4321 8.45042C93.4321 8.20773 93.414 7.96958 93.3823 7.73596C93.135 7.96278 92.8583 8.16237 92.543 8.32795C90.2386 9.52779 86.8863 9.03787 84.4163 8.65002C83.9151 8.57064 83.4909 8.30526 83.1756 7.94009C83.1598 8.10794 83.1507 8.27805 83.1507 8.45042C83.1507 11.2901 85.4529 13.5923 88.2926 13.5923C91.1323 13.5923 93.4344 11.2901 93.4344 8.45042H93.4321Z" fill="#8A8EF1"/>
<path d="M86.7866 13.3677C87.2629 13.5129 87.7664 13.5923 88.2903 13.5923C88.7235 13.5923 89.1454 13.5378 89.5491 13.4358V3.46503C89.1477 3.36297 88.7258 3.30853 88.2903 3.30853C87.7664 3.30853 87.2629 3.38792 86.7866 3.53308V13.3677Z" fill="#F8CC76"/>
<path d="M87.374 13.5038C87.6711 13.5583 87.975 13.5923 88.288 13.5923C88.5171 13.5923 88.7416 13.5764 88.9617 13.5469V3.35847C88.7416 3.32899 88.5171 3.31311 88.288 3.31311C87.975 3.31311 87.6711 3.34486 87.374 3.40157V13.5084V13.5038Z" fill="#EBA443"/>
<path d="M88.1769 15.2548C86.5688 15.2548 85.4937 13.9506 85.4937 12.3448L85.2668 9.77499L85.8452 9.66159C87.3853 9.36219 88.9707 9.36219 90.5108 9.66159L91.0891 9.77499L90.8623 12.3448C90.8623 13.9529 89.785 15.2548 88.1791 15.2548H88.1769Z" fill="#72271A"/>
<path d="M85.8452 9.6616L85.2668 9.775L85.3304 10.4872C86.596 10.1651 88.4626 9.94058 91.0529 10.1923L91.0891 9.77274L90.5108 9.65933C88.9707 9.35994 87.3853 9.35994 85.8452 9.65933V9.6616Z" fill="#521D0A"/>
<path d="M91.316 14.461L90.7943 14.7037C89.0637 15.5089 87.0655 15.5089 85.3349 14.7037L84.8132 14.461L84.5864 9.01746L86.1356 8.76569C87.4125 8.55702 88.7167 8.55702 89.9937 8.76569L91.5428 9.01746L91.316 14.461Z" stroke="#E4D9F0" stroke-width="2" stroke-linecap="round" stroke-linejoin="round"/>
<path d="M84.7316 10.5303C84.7316 10.5303 88.2358 9.58447 91.477 10.5303" stroke="#E4D9F0" stroke-width="2" stroke-linecap="round" stroke-linejoin="round"/>
<path d="M84.7316 12.3448C84.7316 12.3448 88.0022 13.2158 91.3976 12.3448" stroke="#E4D9F0" stroke-width="2" stroke-linecap="round" stroke-linejoin="round"/>
<path d="M84.7316 13.3972C84.7316 13.3972 88.0022 14.2682 91.3976 13.3972" stroke="#E4D9F0" stroke-width="2" stroke-linecap="round" stroke-linejoin="round"/>
<path d="M86.5529 12.6487L86.7865 15.1777" stroke="#E4D9F0" stroke-width="2" stroke-linecap="round" stroke-linejoin="round"/>
<path d="M89.5491 12.6487L89.3132 15.1777" stroke="#E4D9F0" stroke-width="2" stroke-linecap="round" stroke-linejoin="round"/>
<path d="M89.3223 8.24173H87.0134C86.8881 8.24173 86.7866 8.34328 86.7866 8.46854V9.41889C86.7866 9.54416 86.8881 9.6457 87.0134 9.6457H89.3223C89.4476 9.6457 89.5491 9.54416 89.5491 9.41889V8.46854C89.5491 8.34328 89.4476 8.24173 89.3223 8.24173Z" fill="white"/>
<path d="M87.1653 8.94487C87.1653 8.86548 87.2288 8.80197 87.3082 8.80197C87.3876 8.80197 87.4511 8.86548 87.4511 8.94487C87.4511 9.02425 87.3876 9.08776 87.3082 9.08776C87.2288 9.08776 87.1653 9.02425 87.1653 8.94487Z" fill="#8A8EF1"/>
<path d="M88.8846 8.94487C88.8846 8.86548 88.9481 8.80197 89.0275 8.80197C89.1069 8.80197 89.1704 8.86548 89.1704 8.94487C89.1704 9.02425 89.1069 9.08776 89.0275 9.08776C88.9481 9.08776 88.8846 9.02425 88.8846 8.94487Z" fill="#8A8EF1"/>
<path d="M62.0843 84.6122L59.9772 88.4022C59.9772 88.4022 54.4769 90.7951 53.9984 92.4281C53.7625 93.2379 54.7355 95.0932 55.6677 95.7169C56.5999 96.3407 58.1627 97.3046 59.9772 95.6602C61.5649 94.22 63.6062 90.3301 63.6062 90.3301L65.1939 86.8145L62.0843 84.6122Z" fill="#030303"/>
<path d="M53.9984 92.4281C53.7625 93.2379 54.7355 95.0932 55.6677 95.7169C56.5228 96.2885 57.9086 97.1459 59.5326 96.0141C58.4326 93.6507 55.6745 92.0267 54.6765 91.4982C54.3318 91.8203 54.0846 92.1355 53.9984 92.4281Z" fill="white"/>
<path d="M58.6367 96.4608C56.8449 94.3311 55.4023 93.8842 54.012 92.3918C54.0074 92.4032 54.0006 92.4168 53.9984 92.4281C53.7625 93.2378 54.7355 95.0932 55.6677 95.7169C56.3618 96.1796 57.4028 96.8306 58.6367 96.4608Z" fill="#877DAE"/>
<path d="M92.5997 69.0301L93.7928 68.9983C94.2782 68.9688 94.7182 69.2796 94.8497 69.7468C95.2535 71.1666 96.6257 74.0699 96.569 75.5872C96.4941 77.6286 97.5511 77.4562 97.5511 77.4562C97.5511 77.4562 99.8487 77.4562 100.246 74.0971C100.348 73.2329 100.162 72.3597 99.7444 71.5953C99.2 70.5928 98.4629 68.9915 98.608 67.8733C98.8348 66.1336 99.0617 63.6387 97.474 62.8834C97.474 62.8834 95.6527 62.6747 94.3734 64.2443C94.3734 64.2443 93.008 65.0313 91.8785 64.8522L92.5975 69.0278L92.5997 69.0301Z" fill="#030303"/>
<path d="M98.6103 67.8756C98.8371 66.1359 99.0639 63.641 97.4762 62.8857C97.4762 62.8857 97.2086 62.8562 96.8094 62.9061C97.7552 64.394 97.6236 67.2178 97.5715 68.4811C97.5148 69.842 99.2159 71.5046 99.0639 74.1515C98.9573 76.0046 97.5375 76.5761 96.696 76.753C96.9636 77.5514 97.5533 77.4562 97.5533 77.4562C97.5533 77.4562 99.851 77.4562 100.248 74.0971C100.35 73.2329 100.164 72.3597 99.7466 71.5953C99.2023 70.5928 98.4651 68.9915 98.6103 67.8733V67.8756Z" fill="#E4D9F0"/>
<path d="M94.4528 36.3485L88.3016 40.5083L94.4528 39.601V36.3485Z" fill="#8A8EF1"/>
<path d="M74.5499 34.4773L75.929 38.4284L73.5905 36.4529L74.5499 34.4773Z" fill="#8A8EF1"/>
<path d="M59.5326 34.4773C59.5326 34.4773 58.521 30.2495 61.5649 29.1858C63.833 28.3919 63.0777 26.7475 65.7224 26.1419C68.3693 25.5363 69.957 25.5363 71.091 26.6704C72.2251 27.8045 74.0396 30.6011 76.9882 31.3586L75.929 36.3485C75.929 36.3485 73.3592 36.4461 70.4106 37.0403C67.462 37.6346 62.4721 37.8115 59.5326 34.4773Z" fill="#72271A"/>
<path d="M75.929 36.3485L76.2511 34.8334C75.8791 34.8084 75.5048 34.7744 75.1306 34.7222C74.2052 34.5975 73.3048 34.382 72.3725 34.2981C69.8889 34.0713 66.7657 34.7472 64.4681 33.7061C62.5243 32.8238 61.1634 30.9458 62.0457 28.9839C61.9006 29.0564 61.7441 29.1245 61.5649 29.188C58.5233 30.2517 59.5326 34.4795 59.5326 34.4795C62.4721 37.8137 67.462 37.6368 70.4106 37.0425C73.3592 36.4483 75.929 36.3508 75.929 36.3508V36.3485Z" fill="#521D0A"/>
<path d="M88.0635 36.4528C88.0635 36.4528 94.226 36.818 97.6282 36.319C101.03 35.82 103.949 36.9405 105.945 38.4284C108.062 40.0093 106.61 45.7998 104.886 45.9495C104.886 45.9495 102.899 48.6531 98.3835 46.8885C93.6726 45.0468 86.6686 41.2613 86.6686 41.2613L88.0635 36.4506V36.4528Z" fill="#72271A"/>
<path d="M105.945 38.4283C105.308 37.952 104.573 37.5143 103.761 37.1537C103.884 37.2603 104.002 37.3714 104.113 37.4825C105.728 39.102 105.632 41.665 103.866 43.1529C102.35 44.4276 100.275 44.541 98.3404 44.017C95.6912 43.3003 93.2484 41.8487 90.6877 40.8802C89.6716 40.4946 88.3878 39.8686 87.1608 39.576L86.6708 41.2658C86.6708 41.2658 93.6748 45.0513 98.3858 46.893C102.899 48.6576 104.888 45.954 104.888 45.954C106.612 45.8021 108.064 40.0138 105.948 38.4329L105.945 38.4283Z" fill="#521D0A"/>
<path d="M86.867 36.4211C88.401 32.3006 87.7556 28.257 85.4253 27.3894C83.095 26.5219 79.9624 29.159 78.4283 33.2795C76.8943 37.4 77.5398 41.4436 79.87 42.3112C82.2003 43.1787 85.3329 40.5417 86.867 36.4211Z" fill="#E56965"/>
<path d="M85.4234 27.3849C85.0559 27.2488 84.6681 27.1989 84.2712 27.2284C85.7772 28.7367 86.0312 32.1547 84.7407 35.625C83.4478 39.0975 81.0209 41.5153 78.8957 41.6718C79.1769 41.9531 79.5013 42.1708 79.8687 42.3069C82.2004 43.1733 85.3327 40.5378 86.8659 36.4166C88.3992 32.2954 87.7528 28.2513 85.4234 27.3849Z" fill="#CE4949"/>
<path d="M87.687 31.6195C87.6802 31.463 87.6666 31.311 87.653 31.1591C86.7162 31.3133 85.471 31.1749 84.2235 30.7122C82.9488 30.2382 81.8964 29.5056 81.2931 28.7594C81.1842 28.8637 81.0754 28.9703 80.9665 29.0837C81.6197 29.8821 82.7062 30.6328 84.0648 31.1386C85.3939 31.6331 86.6799 31.7828 87.687 31.6218V31.6195Z" fill="white"/>
<path d="M85.5685 31.0887C85.5708 31.243 85.5708 31.3972 85.5685 31.5537C86.3442 31.6966 87.0678 31.717 87.687 31.6172C87.6802 31.4607 87.6666 31.3087 87.653 31.1568C87.0564 31.2543 86.3352 31.2339 85.5685 31.0865V31.0887Z" fill="#EED4C4"/>
<path d="M77.6301 38.4556C77.6437 38.6121 77.6618 38.7663 77.6845 38.916C78.6054 38.7913 79.7984 38.9342 80.996 39.381C82.1641 39.8165 83.1439 40.4674 83.7631 41.1479C83.8765 41.0481 83.9899 40.9438 84.1033 40.8349C83.4388 40.1023 82.4136 39.4241 81.1547 38.9569C79.8687 38.4783 78.6235 38.3218 77.6323 38.4556H77.6301Z" fill="white"/>
<path d="M84.1011 40.8349C83.6815 40.3722 83.119 39.9322 82.443 39.5534C82.3364 39.6736 82.2298 39.7893 82.121 39.9004C82.7901 40.2701 83.3548 40.7011 83.7608 41.1479C83.8742 41.0481 83.9876 40.9437 84.1011 40.8349Z" fill="#EED4C4"/>
<path d="M84.1215 34.069L82.341 33.4067C82.2095 33.3568 82.1414 33.2094 82.1913 33.0779C82.2412 32.9463 82.3886 32.8783 82.5202 32.9282L84.3007 33.5905C84.4322 33.6404 84.5003 33.7878 84.4504 33.9193C84.4005 34.0509 84.2531 34.1189 84.1215 34.069Z" fill="white"/>
<path d="M83.7359 35.1056L81.9554 34.4433C81.8238 34.3934 81.7558 34.2459 81.8057 34.1144C81.8556 33.9828 82.003 33.9148 82.1346 33.9647L83.9151 34.627C84.0466 34.6769 84.1147 34.8243 84.0648 34.9559C84.0149 35.0874 83.8674 35.1555 83.7359 35.1056Z" fill="white"/>
<path d="M83.3503 36.1421L81.5698 35.4798C81.4383 35.4299 81.3702 35.2825 81.4201 35.1509C81.47 35.0194 81.6175 34.9514 81.749 35.0013L83.5295 35.6635C83.6611 35.7134 83.7291 35.8609 83.6792 35.9924C83.6293 36.124 83.4819 36.192 83.3503 36.1421Z" fill="white"/>
<path d="M82.9648 37.1786L81.1843 36.5163C81.0527 36.4664 80.9847 36.319 81.0346 36.1875C81.0845 36.0559 81.2319 35.9879 81.3635 36.0378L83.1439 36.7C83.2755 36.7499 83.3435 36.8974 83.2936 37.0289C83.2437 37.1605 83.0963 37.2285 82.9648 37.1786Z" fill="white"/>
<path d="M88.3652 36.4075C88.2835 35.5501 88.1588 34.593 87.9887 33.7606C87.8639 33.1527 87.6054 33.0211 87.0429 32.8147C86.4826 32.6083 85.8339 32.4496 85.2737 32.2023C85.0333 32.0957 84.7203 31.8576 84.6205 32.2477C84.557 32.4949 84.7929 32.6855 84.9607 32.8261C85.496 33.2797 85.9995 33.7991 86.6573 34.0713C86.6641 34.3639 86.4463 34.7154 86.3511 35.0103C86.2354 35.3709 86.063 35.7452 85.9746 36.1035C85.4302 35.8631 85.0492 35.6227 84.3937 35.6522C83.99 35.6703 83.6089 35.8087 83.212 35.8427C82.9557 35.8654 82.5066 35.7316 82.434 36.1013C82.3161 36.7091 83.7586 36.8611 84.1442 36.9359C84.6069 37.0244 84.8496 37.0947 84.9652 37.6005C85.0378 37.918 84.904 38.1585 84.7135 38.4715C84.4028 38.9841 84.2939 38.8321 83.7745 38.6212C83.4229 38.4783 81.309 37.9271 81.6923 38.8503C81.9645 39.5057 83.2142 39.5262 83.652 40.0773C84.1192 40.667 84.2848 41.4405 85.1331 41.5947C85.7908 41.7126 86.4531 41.513 87.0542 41.2704C88.0159 40.8825 88.5285 40.2066 88.8392 39.2245C89.1069 38.3807 89.2407 36.9836 88.372 36.3939C88.4037 36.4596 88.4242 36.5277 88.3606 36.4097L88.3652 36.4075Z" fill="#292126"/>
<path d="M74.3504 36.5322C74.2664 36.3507 74.1122 36.2033 74.0056 36.0332C73.8015 35.7111 73.6586 35.2825 73.5905 34.9037C73.4522 34.128 73.6903 33.2706 73.9376 32.5493C74.144 31.946 74.3458 31.3949 74.7201 30.8777C74.9401 30.5715 75.0217 30.4763 75.3506 30.567C75.9925 30.7416 76.5913 30.5625 77.2377 30.3992C77.7185 30.2789 78.2379 30.1837 78.6893 29.9637C79.0431 29.7913 79.3856 29.5622 79.7281 29.3853C80.1001 29.1925 80.3065 29.1086 80.6762 29.383C80.6762 29.383 79.1316 31.6988 79.1951 32.2023C79.2427 32.5811 79.3539 32.9644 79.4446 33.3341C79.5807 33.8989 80.2407 34.069 80.7352 34.2754C80.9166 34.3502 81.1457 34.3797 81.2886 34.5294C81.4836 34.729 81.4882 35.1078 81.5018 35.3754C81.5267 35.8994 81.3339 35.9788 80.8554 35.8109C80.5605 35.7066 80.2793 35.6023 79.9799 35.5456C80.3791 35.7996 80.9733 35.981 81.2727 36.3621C81.4383 36.5708 81.4269 36.8293 81.4133 37.0902C81.3952 37.4712 81.3339 37.4825 80.9733 37.5211C80.5219 37.571 79.8982 37.3442 79.5126 37.5075C79.2314 37.6277 79.1202 37.8432 78.7891 37.8409C78.5963 37.8409 78.3604 37.7865 78.1858 37.732C78.3445 37.9974 78.5033 38.4669 78.2788 38.7459C77.9385 39.17 77.6936 38.5622 77.5008 38.3104C77.156 37.8545 76.7841 37.571 76.2737 37.3238C76.0152 37.199 75.8269 37.1038 75.7679 36.7998C75.7385 36.6433 75.7838 36.5141 75.7067 36.3689C75.2803 36.3258 74.8834 36.5662 74.466 36.5685C74.4638 36.6002 74.4728 36.6275 74.3504 36.5367V36.5322Z" fill="#292126"/>
<path d="M74.4933 23.5902V20.4149L73.3161 22.4426L74.4933 23.5902Z" fill="#598E70"/>
<path d="M98.0002 28.0608L99.4903 24.4885L100.352 27.428L98.0002 28.0608Z" fill="#598E70"/>
</svg>
