<svg width="38" height="38" viewBox="0 0 38 38" fill="none" xmlns="http://www.w3.org/2000/svg">
<path d="M11.0833 14.25C14.1439 14.25 16.625 11.7689 16.625 8.70835C16.625 5.64778 14.1439 3.16669 11.0833 3.16669C8.02271 3.16669 5.54163 5.64778 5.54163 8.70835C5.54163 11.7689 8.02271 14.25 11.0833 14.25Z" stroke="#333333" stroke-width="2" stroke-linejoin="round"/>
<path d="M26.9167 14.25C29.9772 14.25 32.4583 11.7689 32.4583 8.70835C32.4583 5.64778 29.9772 3.16669 26.9167 3.16669C23.8561 3.16669 21.375 5.64778 21.375 8.70835C21.375 11.7689 23.8561 14.25 26.9167 14.25Z" stroke="#333333" stroke-width="2" stroke-linejoin="round"/>
<path d="M3.16663 34.8334C3.16663 34.1296 3.16663 31.7546 3.16663 27.7084C3.16663 23.3361 6.15139 19.7917 9.83333 19.7917C11.6111 19.7917 12.9444 19.7917 13.8333 19.7917C17.0673 19.7917 19 22.9796 19 22.9796" stroke="#333333" stroke-width="2" stroke-linecap="round" stroke-linejoin="round"/>
<path d="M34.8333 34.8334C34.8333 34.1296 34.8333 31.7546 34.8333 27.7084C34.8333 23.3361 31.8131 19.7917 28.0874 19.7917C26.2884 19.7917 24.9393 19.7917 24.0398 19.7917C20.9038 19.7917 18.9938 22.9796 19 22.9796" stroke="#333333" stroke-width="2" stroke-linecap="round" stroke-linejoin="round"/>
<path d="M8.70837 31.6667H30.0834" stroke="#333333" stroke-width="2" stroke-linecap="round" stroke-linejoin="round"/>
<path d="M27.1505 28.7045L28.1319 29.6918L30.0945 31.6665L28.1319 33.6943L27.1505 34.7083" stroke="#333333" stroke-width="2" stroke-linecap="round" stroke-linejoin="round"/>
<path d="M11.344 28.6837L10.3471 29.6761L8.35339 31.6609L10.3471 33.6787L11.344 34.6876" stroke="#333333" stroke-width="2" stroke-linecap="round" stroke-linejoin="round"/>
</svg>
